<svg xmlns="http://www.w3.org/2000/svg" width="78" height="78"><g fill="none" fill-rule="evenodd"><path d="M0 0h78v78H0z"/><path fill="#3CBD50" d="M1.91 18.989c2.016-1.566 6.314-2.197 12.894-1.894-.053 1.149-.186 2.744-.4 4.785-.322 3.062-7.163 2.936-7.928 2.883-.765-.053-.243.533-2.196-.464-1.953-.998-3.447-2.247-3.095-3.583.074-.28.443-1.51.724-1.727z"/><path fill="#5E7BFF" d="M76.256 54.509c-1.73 1.68-4.036 2.375-6.918 2.086-1.358-1.576-1.91-3.375-1.653-5.396.384-3.032 1.022-3.305 1.653-3.307.631-.001 3.582.721 5.16 1.565 1.578.844 2.766 1.966 2.424 3.303-.072.282-.425 1.515-.666 1.749z"/><path fill="#FFA55B" d="M74.282 39.53c0 2.652-3.382 4.886-3.941 7.364-.578 2.562 1.49 6.05.385 8.36-1.128 2.35-5.137 2.885-6.737 4.904-1.608 2.027-1.242 6.08-3.254 7.702-2.004 1.61-5.844.353-8.179 1.488-2.295 1.115-3.707 4.931-6.248 5.514-2.467.563-5.376-2.248-8.01-2.248-2.634 0-5.544 2.81-8.008 2.248-2.544-.583-3.956-4.4-6.252-5.515-2.332-1.134-6.174.124-8.178-1.487-2.012-1.621-1.646-5.675-3.256-7.703-1.598-2.018-5.608-2.553-6.736-4.903-1.104-2.31.965-5.798.387-8.36-.56-2.478-3.943-4.712-3.943-7.364 0-2.65 3.384-4.886 3.943-7.366.578-2.56-1.491-6.048-.387-8.358 1.128-2.35 5.138-2.886 6.736-4.904 1.61-2.028 1.244-6.08 3.256-7.7 2.004-1.61 5.846-.355 8.178-1.49 2.296-1.114 3.708-4.933 6.252-5.514 2.464-.563 5.374 2.246 8.008 2.246 2.634 0 5.543-2.81 8.01-2.246 2.541.581 3.955 4.4 6.248 5.514 2.335 1.135 6.175-.12 8.18 1.49 2.01 1.62 1.645 5.674 3.253 7.7 1.6 2.018 5.61 2.555 6.737 4.904 1.106 2.31-.963 5.798-.385 8.358.559 2.48 3.94 4.715 3.94 7.366"/><path fill="#FFC466" d="M49.392 16.714c5.588 0 13.81 5.27 12.78 8.958-1.029 3.69-18.367-8.958-12.78-8.958z"/><path fill="#A2BBFF" d="M50.804 47.724c.893.087 3.43 1.19 5.725 2.12 2.457.995 5.545 2.193 9.013 3.03 3.468.838 5.632 1.032 7.847 1.195 2.214.164 3.257-.267 3.65-1.7-.127.6-2.35 7.816-3.975 10.601-2.3 3.945-5.102 5.407-8.716 4.817-3.613-.59-5.57-.842-7.494-1.304-3.737-.895-7.019-1.938-8.83-2.67s-2.13-1.269-1.88-3.158c.251-1.888 1.321-6.406 2.4-10.376.428-1.579.706-2.708 2.26-2.555z"/><path fill="#5E7BFF" fill-rule="nonzero" d="M75.974 55.79c-.128.416-.506 1.456-.642 1.973-.586.422-1.53.695-4.427.517-2.898-.178-5.282-.424-8.894-1.376s-5.655-1.614-8.681-2.477c-1.628-.464-4.653-1.536-5.406-1.823.238-.855.471-1.761.665-2.455.785.318 2.697 1.152 5.595 2.184 2.899 1.032 4.467 1.472 8.372 2.574 3.906 1.101 5.793 1.333 9.052 1.632 3.258.299 4.286-.46 4.366-.75z"/><path fill="#5E7BFF" d="M56.586 59.057a.346.346 0 01-.186-.452.346.346 0 01.448-.197c.175.07.258.273.186.453a.346.346 0 01-.448.196zm-.583 1.444a.346.346 0 01-.186-.453.346.346 0 01.448-.196c.175.07.258.273.186.452a.346.346 0 01-.448.197zm-.584 1.444a.346.346 0 01-.185-.453.346.346 0 01.448-.197.346.346 0 01.185.453.346.346 0 01-.448.197zm-.583 1.444a.346.346 0 01-.186-.453.346.346 0 01.448-.197.347.347 0 01.186.453.346.346 0 01-.448.197zm-.584 1.444a.346.346 0 01-.185-.453.346.346 0 01.448-.197c.175.07.258.274.185.453a.346.346 0 01-.448.197zm5.25-12.995a.346.346 0 01-.185-.453.346.346 0 01.448-.197c.175.07.258.274.186.453a.346.346 0 01-.448.197zm-.583 1.444a.346.346 0 01-.185-.453.346.346 0 01.448-.197c.175.07.258.274.185.453a.346.346 0 01-.448.197zm-.583 1.444a.346.346 0 01-.186-.453.346.346 0 01.449-.197c.175.07.258.273.185.453a.346.346 0 01-.448.197zm-.583 1.444a.346.346 0 01-.186-.453.346.346 0 01.448-.197c.175.07.258.273.186.453a.346.346 0 01-.448.197zm-.584 1.444a.346.346 0 01-.185-.453.346.346 0 01.448-.197c.175.07.258.273.185.453a.346.346 0 01-.448.197zm17.976.522a255.74 255.74 0 01-1.916 5.95c-.754 2.255-2.399 3.411-3.809 3.717-1.41.306-2.346.283-6.221-.304 3.3-.14 5.216-.451 8.076-2.968 2.2-1.936 3.589-5.806 3.87-6.395z"/><path fill="#D1E0FF" d="M60.135 58.619c3.355.927 6.15 1.524 8.383 1.792-.037.18-.24.942-.383 1.32-2.141-.223-4.92-.78-8.337-1.668l.337-1.444zm-.47 2.137l5.388 1.217-.248 1.29-5.448-1.153zM48.72 57.803l5.543 1.733-.341 1.247-5.541-1.64zm.543-2.283l5.513 1.771-.38 1.294-5.44-1.668z"/><path fill="#CF6C0E" fill-opacity=".6" d="M27.772 28.885c-.893-.088-3.43-1.19-5.725-2.12-2.458-.995-9.917-4.492-13.385-5.329 1.929-1.123 4.977-2.5 5.866-3.618 4.03-5.074-2.48-9.352-.3-8.996 3.613.59 4.588.79 7.487 1.511 2.9.721 7.025 1.73 8.837 2.463 1.811.731 2.13 1.268 1.879 3.157-.25 1.889-1.32 6.406-2.399 10.376-.428 1.58-.706 2.708-2.26 2.556z" opacity=".6"/><path fill="#7BE383" d="M27.429 25.275c-.894-.087-3.431-1.19-5.726-2.12-2.457-.995-5.545-2.193-9.013-3.03-3.468-.838-5.26-1.14-7.475-1.302-2.215-.164-3.629.374-4.022 1.806.127-.6 2.715-7.649 3.937-10.564.58-1.383.813-1.939 1.328-2.867C7.7 4.96 10.188 4.95 12.964 5.242c3.618.38 5.509.76 8.408 1.482 2.899.72 7.025 1.73 8.836 2.462 1.812.732 2.13 1.269 1.88 3.158-.251 1.888-1.321 6.406-2.4 10.376-.428 1.579-.706 2.708-2.26 2.555z"/><path fill="#3CBD50" fill-rule="nonzero" d="M5.01 10.423c.184-.543.547-1.45.8-2.026.586-.422 1.892-.829 4.198-.855 2.306-.026 4.703.347 8.316 1.299 3.612.952 5.564 1.56 8.59 2.423 1.628.464 4.306 1.484 5.058 1.77l-.518 2.53a59.62 59.62 0 00-5.394-2.207c-2.899-1.032-4.376-1.418-8.282-2.52-3.906-1.1-5.568-1.263-8.219-1.338-2.65-.076-4.47.635-4.549.924z"/><path fill="#B4F5B0" d="M17.047 17.495c-4.268-1.155-7.518-1.866-9.752-2.133l.5-1.351c2.141.223 5.338.903 9.59 2.04l-.338 1.444zm.47-2.137a115.04 115.04 0 00-7.48-1.71 16.896 16.896 0 00-1.983-.266l.425-1.243a11.6 11.6 0 011.818.212c2.444.451 4.952 1.002 7.525 1.652l-.305 1.355zm10.648 3.382l-5.544-1.733.342-1.247 5.54 1.64zm-.543 2.283l-5.514-1.771.38-1.294 5.44 1.668z"/><path fill="#FFF" d="M36.394 54.002c-1.564-.164-3.483-.923-5.758-2.275-.256-.153-.903-.587-1.94-1.302a2.396 2.396 0 01-.318-3.684 3.24 3.24 0 014.168-.312c1.647 1.19 3.101 1.852 4.363 1.985 2.662.28 4.327-.61 4.507-2.324.19-1.801-1.365-2.542-3.741-3.858l-3.543-1.971c-2.799-1.494-5.333-4.248-4.894-8.422.499-4.745 5.085-8.083 11.019-7.46 1.735.183 3.938 1.22 6.608 3.11a2.305 2.305 0 01.307 3.503 3.1 3.1 0 01-3.853.444c-1.392-.875-2.608-1.367-3.648-1.476-2.226-.234-3.724.586-3.895 2.211-.184 1.758 1.627 2.57 3.965 3.837l3.508 1.88c3.3 1.768 5.236 4.325 4.811 8.368-.498 4.745-4.86 8.462-11.666 7.746z"/></g></svg>