<svg xmlns="http://www.w3.org/2000/svg" width="40" height="30"><g fill="none" fill-rule="evenodd"><path d="M0 0h40v30H0z"/><path fill="#B1BDCC" d="M20.193 14.465a7.2 7.2 0 001.627-2.056c-.542-.172-1.085-.314-1.627-.314v2.37zm-.4-.029c-.657-.514-1.256-1.256-1.656-2.027a4.73 4.73 0 011.656-.314v2.341zm.4-10.508a6.708 6.708 0 011.627 2.028c-.542.2-1.085.314-1.627.314V3.928zm-.4 0c-.657.514-1.256 1.257-1.656 2.028.542.171 1.085.314 1.656.314V3.928zm.4 7.767V9.382h2.427c0 .914-.229 1.827-.628 2.656-.543-.2-1.2-.343-1.8-.343zm5.282-2.313H23.02a7.405 7.405 0 01-.629 2.827c.514.228 1 .542 1.457.914.97-1 1.57-2.342 1.627-3.741zm-1.941 3.998a5.302 5.302 0 00-1.342-.829 7.063 7.063 0 01-1.657 2.113c1.114-.142 2.142-.542 2.999-1.284zm-3.741-1.685V9.382h-2.456c.029.914.229 1.856.629 2.656.57-.2 1.199-.343 1.827-.343zm-5.311-2.313h2.456c.028 1 .257 1.885.656 2.827a6.124 6.124 0 00-1.484.914c-.971-1-1.57-2.313-1.628-3.741zm1.942 3.998c.4-.315.856-.657 1.342-.829.428.829.97 1.514 1.656 2.113-1.114-.142-2.142-.542-2.998-1.284zm3.769-6.71v2.312h2.427c0-.942-.229-1.827-.628-2.684-.571.229-1.2.343-1.8.371zm5.282 2.312H23.02c-.029-1-.257-1.913-.629-2.827.514-.228 1-.542 1.457-.913 1.028 1.056 1.57 2.341 1.627 3.74zm-1.941-4.026c-.4.343-.857.657-1.342.857-.429-.828-.971-1.485-1.657-2.113a5.522 5.522 0 012.999 1.256zM19.793 6.67v2.313h-2.456a6.834 6.834 0 01.629-2.684c.57.229 1.199.343 1.827.371zm-5.311 2.313h2.456c.028-1.028.257-1.913.656-2.827a6.117 6.117 0 01-1.484-.913c-1 1-1.57 2.313-1.628 3.74zm1.942-4.026c.4.343.856.657 1.342.857.4-.828 1-1.513 1.656-2.113a5.522 5.522 0 00-2.998 1.256zM2.404 11.01h10.965c.4 2.027 1.798 3.712 4.597 4.882-.314.971-1.4 1.856-2.513 1.856H9.485c-.914 0-1.627-.77-1.913-1.399h6.053c.372-.057.372-.342.029-.4H7.686c-.77 0-1.456-.656-1.856-1.37h6.91c.372-.057.372-.343 0-.4H5.773c-.714 0-1.342-.828-1.599-1.37h7.653c.37-.058.37-.4 0-.429H4.03c-.628 0-1.199-.657-1.627-1.37zm35.15 0H26.588c-.4 2.027-1.799 3.712-4.597 4.882.314.971 1.399 1.856 2.512 1.856h5.968c.914 0 1.628-.77 1.913-1.399h-6.053c-.371-.057-.371-.342-.029-.4h5.968c.771 0 1.456-.656 1.856-1.37h-6.91c-.371-.057-.371-.343 0-.4h6.967c.714 0 1.342-.828 1.6-1.37H28.13c-.371-.058-.371-.4 0-.429h7.795c.628 0 1.2-.657 1.627-1.37zM25.19 26.343l3.512-7.196h2.313l1.456 7.196h-2.199l-.085-.857h-2.313l-.371.857H25.19zm3.255-2.341h1.485l-.372-2.656-1.113 2.656zm-7.852 2.341l.828-5.397h-2.056l.342-1.827h6.282l-.342 1.827h-1.942l-.8 5.397h-2.312zm-9.423 0l3.54-7.196h2.313l1.428 7.196H16.31l-.143-.857h-2.285l-.37.857H11.17zm3.284-2.341h1.484l-.4-2.656-1.084 2.656zM7.4 26.343l1.427-7.196h2.342l-1.428 7.196H7.401z"/></g></svg>