<svg width="80" height="23" fill="none" xmlns="http://www.w3.org/2000/svg"><path fill-rule="evenodd" clip-rule="evenodd" d="M55 22.49a1.25 1.25 0 100-2.5 1.25 1.25 0 000 2.5zM55 18.49a1.25 1.25 0 100-2.5 1.25 1.25 0 000 2.5zM55 14.49a1.25 1.25 0 100-2.5 1.25 1.25 0 000 2.5zM55 10.49a1.25 1.25 0 100-2.5 1.25 1.25 0 000 2.5zM55 6.49a1.25 1.25 0 100-2.5 1.25 1.25 0 000 2.5zM55 2.5A1.25 1.25 0 1055 0a1.25 1.25 0 000 2.5zM9.49 19.24l-4.44-7.71-2.44 3v4.71H0v-16h2.61v7.28h.24l5.77-7.28h2.96l-4.9 6.21 5.77 9.79H9.49zM20.29 19.49a5.6 5.6 0 01-4.38-1.67c-1.09-1.21-1.62-3.1-1.62-5.63V3.24h2.61v9.16c0 3.21 1.11 4.76 3.36 4.76s3.49-1.55 3.49-4.75V3.24h2.61v8.94c0 2.53-.56 4.43-1.63 5.63a5.63 5.63 0 01-4.44 1.68zM29.83 19.24v-16h5a7.72 7.72 0 014.42 1 4.31 4.31 0 011.74 3.8c0 3.28-2.24 5.2-6.06 5.2h-2.4v6h-2.7zm2.7-8.09h2.22c2.46 0 3.65-1 3.65-3s-1.12-2.8-3.75-2.8h-2.13v5.84l.01-.04zM44.11 3.24h2.7v15.99h-2.7V3.24z" fill="#008AE6"/><path d="M64.03 10.24c.868 0 1.581-.351 2.129-.982l-.64-.754c-.383.413-.848.692-1.447.692-1.137 0-1.86-.93-1.86-2.47 0-1.519.785-2.449 1.89-2.449.528 0 .93.238 1.282.59l.64-.776a2.683 2.683 0 00-1.952-.857c-1.706 0-3.09 1.312-3.09 3.523 0 2.243 1.343 3.483 3.048 3.483zM69.569 10.24c1.767 0 2.986-1.343 2.986-3.534 0-2.18-1.219-3.472-2.986-3.472-1.757 0-2.976 1.291-2.976 3.472 0 2.19 1.22 3.534 2.976 3.534zm0-1.044c-1.065 0-1.746-.971-1.746-2.49 0-1.509.681-2.429 1.746-2.429 1.064 0 1.746.92 1.746 2.429 0 1.519-.682 2.49-1.746 2.49zM73.907 10.116h1.085v-3.09c0-.63-.103-1.53-.155-2.15h.042l.537 1.571 1.116 3.039h.713l1.106-3.039.548-1.57h.04c-.061.62-.154 1.519-.154 2.15v3.089h1.106V3.358h-1.364l-1.168 3.306c-.145.424-.28.879-.424 1.323h-.041c-.145-.444-.29-.899-.434-1.323L75.26 3.358h-1.354v6.758z" fill="#008AE6"/></svg>