<svg xmlns="http://www.w3.org/2000/svg" xmlns:xlink="http://www.w3.org/1999/xlink" width="132" height="24"><defs><path id="a" d="M.499.51h2.5v2.5h-2.5V.51z"/><path id="c" d="M5.843.754V7.87H.555V.754h5.288z"/><path id="e" d="M0 23.491h130.843V1H0z"/></defs><g fill="none" fill-rule="evenodd" transform="translate(.25 -.24)"><path fill="#008AE6" d="M114.999 22.24a1.25 1.25 0 11-2.501 0 1.25 1.25 0 012.5 0zm0-3.998a1.25 1.25 0 10-2.501.001 1.25 1.25 0 002.5 0m0-3.998a1.25 1.25 0 10-2.5 0 1.25 1.25 0 002.5 0m0-3.999a1.25 1.25 0 10-2.5.001 1.25 1.25 0 002.5 0m0-3.999a1.25 1.25 0 10-2.5.001 1.25 1.25 0 002.5 0"/><g transform="translate(112 .49)"><mask id="b" fill="#fff"><use xlink:href="#a"/></mask><path fill="#008AE6" d="M2.999 1.76a1.25 1.25 0 10-2.501 0 1.25 1.25 0 002.5 0" mask="url(#b)"/></g><path fill="#008AE6" d="M122.067 7.519c.95 0 1.474-.406 1.474-1.197 0-.801-.525-1.08-1.474-1.08h-.994V7.52h.994zm-2.233-3.27h2.36c1.453 0 2.563.514 2.563 2.073 0 1.068-.555 1.71-1.388 1.998l1.668 2.917h-1.39l-1.506-2.735h-1.069v2.735h-1.239V4.249z"/><g transform="translate(125 3.49)"><mask id="d" fill="#fff"><use xlink:href="#c"/></mask><path fill="#008AE6" d="M.555 4.675V.755h1.24V4.77c0 1.518.565 2.02 1.41 2.02.854 0 1.452-.502 1.452-2.02V.754h1.186v3.921c0 2.297-1.014 3.195-2.639 3.195-1.613 0-2.649-.898-2.649-3.195" mask="url(#d)"/></g><path fill="#008AE6" d="M9.488 20.241l-4.436-7.706-2.447 2.997v4.709H0V4.249h2.605v7.278h.249l5.76-7.278h2.961l-4.893 6.209 5.762 9.783zM20.287 20.493c-1.92 0-3.38-.563-4.38-1.673-1.09-1.21-1.622-3.105-1.622-5.63V4.25h2.605v9.162c0 3.205 1.108 4.763 3.365 4.763 2.323 0 3.463-1.558 3.463-4.763V4.25h2.605v8.941c0 2.531-.555 4.425-1.631 5.63-.991 1.11-2.48 1.673-4.405 1.673m12.235-8.338h2.18c2.457 0 3.651-1.003 3.651-3.044 0-1.952-1.122-2.796-3.75-2.796h-2.081v5.84zm-2.695 8.086V4.249h4.999c1.914 0 3.402.339 4.421 1.05 1.157.808 1.744 2.066 1.744 3.802 0 3.226-2.267 5.12-6.066 5.12h-2.403v6.02h-2.695z"/><mask id="f" fill="#fff"><use xlink:href="#e"/></mask><path fill="#008AE6" mask="url(#f)" d="M44.111 20.241h2.695V4.25h-2.695zM53.365 10.897h2.105c2.73 0 3.304-1.307 3.304-2.386 0-1.566-1.004-2.286-3.255-2.286h-2.154v4.672zm0 7.277h2.476c2.485 0 3.798-.956 3.798-2.76 0-1.709-1.242-2.54-3.798-2.54h-2.476v5.3zM50.67 20.24V4.25h5.047c3.78 0 5.696 1.286 5.696 3.868 0 1.59-.86 2.956-2.17 3.416l-.038.01v.234l.049.016c1.92.427 3.01 1.792 3.01 3.745 0 1.521-.587 2.725-1.735 3.537-1.058.747-2.58 1.164-4.392 1.164H50.67zM65.314 20.241h2.695V4.25h-2.695zM72.321 20.241V4.249h2.605v13.746h6.738v2.246zM84.18 20.241V4.249h9.613v2.157h-6.918v4.312h5.84v2.246h-5.84v5.031h7.187v2.246zM101.25 20.241V6.406h-4.672V4.249h12.039v2.157h-4.672v13.835z"/></g></svg>