<svg xmlns="http://www.w3.org/2000/svg" width="40" height="30"><g fill="none" fill-rule="evenodd"><path d="M0 0h40v30H0z"/><path fill="#7D89A1" d="M11.175 26.03c0-.42.275-.764.725-.764.43 0 .72.33.72.765s-.29.765-.72.765c-.45 0-.725-.345-.725-.765zm1.935 0v-1.194h-.52v.29c-.165-.215-.415-.35-.755-.35-.67 0-1.195.525-1.195 1.255 0 .73.525 1.255 1.195 1.255.34 0 .59-.135.755-.35v.29h.52V26.03zm17.557 0c0-.42.275-.764.725-.764.43 0 .72.33.72.765s-.29.765-.72.765c-.45 0-.725-.345-.725-.765zm1.935 0v-2.154h-.52v1.25c-.165-.215-.415-.35-.755-.35-.67 0-1.194.525-1.194 1.255 0 .73.524 1.255 1.194 1.255.34 0 .59-.135.755-.35v.29h.52V26.03zm-13.043-.789c.335 0 .55.21.605.58h-1.24c.055-.345.265-.58.635-.58zm.01-.465c-.7 0-1.19.51-1.19 1.255 0 .76.51 1.255 1.225 1.255.36 0 .69-.09.98-.335l-.255-.385c-.2.16-.455.25-.695.25-.335 0-.64-.155-.715-.585h1.775c.005-.065.01-.13.01-.2-.005-.745-.465-1.255-1.135-1.255zm6.274 1.255c0-.42.275-.765.725-.765.43 0 .72.33.72.765s-.29.765-.72.765c-.45 0-.725-.345-.725-.765zm1.935 0v-1.195h-.52v.29c-.165-.215-.415-.35-.755-.35-.67 0-1.195.525-1.195 1.255 0 .73.525 1.255 1.195 1.255.34 0 .59-.135.755-.35v.29h.52V26.03zm-4.87 0c0 .725.505 1.255 1.275 1.255.36 0 .6-.08.86-.285l-.25-.42c-.195.14-.4.215-.625.215-.415-.005-.72-.305-.72-.765s.305-.76.72-.765c.225 0 .43.075.625.215l.25-.42c-.26-.205-.5-.285-.86-.285-.77 0-1.275.53-1.275 1.255zm6.7-1.255c-.3 0-.495.14-.63.35v-.29h-.515v2.39h.52v-1.34c0-.395.17-.615.51-.615.105 0 .215.015.325.06l.16-.49a1.111 1.111 0 00-.37-.065zm-13.928.25c-.25-.165-.595-.25-.975-.25-.605 0-.995.29-.995.765 0 .39.29.63.825.705l.245.035c.285.04.42.115.42.25 0 .185-.19.29-.545.29-.36 0-.62-.115-.795-.25l-.245.405c.285.21.645.31 1.035.31.69 0 1.09-.325 1.09-.78 0-.42-.315-.64-.835-.715l-.245-.035c-.225-.03-.405-.075-.405-.235 0-.175.17-.28.455-.28.305 0 .6.115.745.205l.225-.42zm6.704-.25c-.3 0-.495.14-.63.35v-.29h-.515v2.39h.52v-1.34c0-.395.17-.615.51-.615.105 0 .215.015.325.06l.16-.49a1.111 1.111 0 00-.37-.065zm-4.435.06h-.85v-.725h-.525v.725h-.485v.475h.485v1.09c0 .555.215.885.83.885.225 0 .485-.07.65-.185l-.15-.445a.96.96 0 01-.46.135c-.26 0-.345-.16-.345-.4v-1.08h.85v-.475zm-7.769 2.39v-1.5c0-.565-.36-.945-.94-.95-.305-.005-.62.09-.84.425-.164-.265-.424-.425-.79-.425-.254 0-.504.075-.7.355v-.295h-.52v2.39h.526V25.9c0-.415.23-.635.585-.635.345 0 .52.225.52.63v1.33h.524V25.9c0-.415.24-.635.585-.635.355 0 .525.225.525.63v1.33h.525z"/><path fill="#B1BDCC" d="M15.507 20.852h7.875V6.7h-7.875z"/><path fill="#96A0B3" d="M16.007 13.7a8.984 8.984 0 013.437-7.076A9 9 0 004.883 13.7a9 9 0 0014.561 7.076 8.984 8.984 0 01-3.437-7.076"/><path fill="#CAD3DE" d="M34.005 13.7a9 9 0 01-14.56 7.076 8.984 8.984 0 003.437-7.076 8.984 8.984 0 00-3.438-7.076A9 9 0 0134.005 13.7"/></g></svg>