<svg width="150" height="150" fill="none" xmlns="http://www.w3.org/2000/svg"><path fill-rule="evenodd" clip-rule="evenodd" d="M75.328 132.656c31.369 0 56.953-25.584 56.953-56.953 0-31.369-25.584-56.953-56.953-56.953-31.369 0-56.953 25.584-56.953 56.953 0 31.369 25.584 56.953 56.953 56.953z" fill="#fff"/><path fill-rule="evenodd" clip-rule="evenodd" d="M103.095 108.753c3.465-.675 6.9-1.395 10.155-2.385 8.452-1.6 7.982 5.61 4.392 7.023-7.23 2.846-12.807 7.185-17.833 11.99l3.286-16.628z" fill="#90D3FF"/><path fill-rule="evenodd" clip-rule="evenodd" d="M97.164 109.593l7.531-1.673c4.502 5.071 5.767 8.444 4.897 11.009-3.127 2.016-6.315 4.801-8.959 7.392l-5.25-10.786 1.781-5.942z" fill="#FFB640"/><path fill-rule="evenodd" clip-rule="evenodd" d="M101.279 108.79l2.29-.76c3.782 4.85 5.405 8.948 4.9 12.065l-2.025 1.38c.607-3.764-1.188-8.048-5.165-12.685z" fill="#FFE1A5"/><path fill-rule="evenodd" clip-rule="evenodd" d="M89.139 49.815c-2.242-22.422-28.645-30.502-47.915-29.294-12.977.813-16.987 8.32.14 22.984l18.442 16.001 29.333-9.69z" fill="#C7E9FF"/><path fill-rule="evenodd" clip-rule="evenodd" d="M78.376 43.874c-12.406.947-21.76 3.404-27.108 4.614C30.532 53.178-1.048 66.72.694 74.136c3.582 15.157 44.963 27.841 60.264-1l17.418-29.262z" fill="#90D3FF"/><path fill-rule="evenodd" clip-rule="evenodd" d="M48.224 62.544c-9.777 9.621-18.121 7.762-25.987 7.974-4.189.113-8.045.61-10.228 1.991-7.029 4.45 4.423 9.816 11 11.5 27.688 7.09 19.45-13.322 25.215-21.465z" fill="#C7E9FF"/><path fill-rule="evenodd" clip-rule="evenodd" d="M96.659 107.831c.567 12.398-7.268 14.881-18.408 6.561l-5.1-3.511c1.004-2.785 1.774-4.587 3.335-6.283l11.034-2.811c.096.048.193.099.29.153 3.42 1.889 6.781 2.618 8.849 5.891z" fill="#90D3FF"/><path fill-rule="evenodd" clip-rule="evenodd" d="M96.389 105.623c3.063 3.038 8.08 10.685 9.353 18.24-8.8 5.569-19.23 8.793-30.414 8.793-1.83 0-3.64-.087-5.425-.255 2.251-9.174.677-14.675-2.872-21.59l6.749.024 17.829 7.421 1.887-4.234 1.59-5.478 1.303-2.921z" fill="#FFB640"/><path fill-rule="evenodd" clip-rule="evenodd" d="M47.445 117.492l2.757-8.378c6.705 1.099 13.584 1.729 20.6 1.995l1.949 14.378-25.306-7.995z" fill="#90D3FF"/><path fill-rule="evenodd" clip-rule="evenodd" d="M74.397 129.37c.232-1.689-1.294-3.068-5.705-4.198l-10.526-3.397c1.317-3.02 1.964-7.376 1.043-11.468l11.95.68c.121-.003 6.762 10.097 3.238 18.383z" fill="#FFB640"/><path fill-rule="evenodd" clip-rule="evenodd" d="M62.562 123.003a25.62 25.62 0 01-2.289-.658c1.296-2.675 1.715-6.915.75-11.692l2.364.044c.94 5.087.75 9.771-.825 12.306z" fill="#FFE1A5"/><path fill-rule="evenodd" clip-rule="evenodd" d="M53.625 109.751c-4.316-.895-5.577-1.144-9.213-2.465l-1.769-1.569c-.5-.5-1.275-.845-2.392-.459-2.108.729-2.615 3.566-.83 4.708.471.215 1.002.82.127 1.733-.621.647-1.343 1.112-1.992 1.743-2.035 1.98-3.27 3.746-1.31 6.141-.493 2.408.888 5.632 4.385 3.529 1.138 1.575 2.982 1.429 4.253.036a8.27 8.27 0 001.287-1.918c1.04-2.173 1.955-3.264 3.377-3.852l2.953-.294 1.124-7.333z" fill="#90D3FF"/><path fill-rule="evenodd" clip-rule="evenodd" d="M41.517 119.394c-.406.712-.653 1.453-.83 3.295-.709-1.662-.287-2.868.233-3.567.467-.628 1.29-.577 1.29-.577s-.38.302-.693.849zM36.496 119.27c.648-1.268.96-1.702 1.917-2.756-1.236.405-2.189 1.471-1.917 2.756z" fill="#0F99F5"/><path fill-rule="evenodd" clip-rule="evenodd" d="M41.67 117.031c1.897 1.218 3.417-1.301 3.045-3.038-.283-1.327-1.273-2.554-2.397-2.25-2.124.575-3.079 3.727-.648 5.288z" fill="#fff"/><path fill-rule="evenodd" clip-rule="evenodd" d="M72.574 109.586c-1.068 7.142 6.294 11.49 8.71 12.41.747-1.927 1.702-4.188 3.587-5.522l7.1 2.465.512-.723c-4.21-1.671-7.47-4.749-10.365-7.89-1.845-.56-7.41-.904-9.544-.74z" fill="#FF9100"/><path fill-rule="evenodd" clip-rule="evenodd" d="M98.368 113.477c1.633.95 2.846 1.646 4.751 3.913-.748-2.977-1.497-7.742-5.827-10.305l-3.238 1.089c.373 4.755-1.495 7.678-3.931 11.428l8.245-6.125z" fill="#FF9100"/><path fill-rule="evenodd" clip-rule="evenodd" d="M44.57 97.9c8.16 11.925 27.732 14.428 41.988 13.744 14.722-.705 27.773-6.751 35.964-19.249 10.859-16.566-5.057-38.715-22.448-45.495-15.73-6.134-32.301-3.63-44.788 4.229-14.978 9.426-22.492 29.56-10.717 46.77z" fill="#90D3FF"/><path fill-rule="evenodd" clip-rule="evenodd" d="M55.52 106.69c9.377 4.404 21.411 5.413 31.038 4.954 14.722-.703 27.712-6.543 36.009-18.971 3.132-4.692 3.646-14.015-.381-16.489-6.573-4.036-13.342-2.254-21.932-.922-7.816 1.212-16.282.691-24.936.51-9.519-.2-19.393 3.338-23.286 5.864-3.893 2.527-5.777 6.74-6.47 8.749-2.258 6.549 4.503 13.743 9.958 16.305z" fill="#C7E9FF"/><path fill-rule="evenodd" clip-rule="evenodd" d="M80.219 69.074c2.084-1.997 5.44-3.215 8.268-3.907 2.828-.692 5.127-.856 7.251-.708 2.125.148 4.075.61 5.51 1.374 1.435.764 2.357 1.83 2.976 3.246.619 1.415.938 3.182.949 4.459.012 1.277-.283 2.063-.836 3.203-.552 1.139-1.364 2.63-3.394 3.745-2.03 1.113-5.278 1.848-8.868 1.82-3.591-.03-7.525-.82-10.176-1.895-2.652-1.075-4.02-2.432-4.3-4.498-.278-2.066.536-4.843 2.62-6.84z" fill="#fff"/><path fill-rule="evenodd" clip-rule="evenodd" d="M78.86 78.517l22.756-3.735c.573-.095 2.308.082 2.873-.38-1.979 3.84-7.202 8.453-6.371 18.99 1.895 6.114-4.599 8.275-8.298 4.66-3.836-3.749-1.044-11.163-10.96-19.535z" fill="#fff"/><path fill-rule="evenodd" clip-rule="evenodd" d="M90.166 67.798c-.415.422-.462.71.07 1.111.53.401 1.638.915 2.62 1.384.982.47 1.837.893 2.437 1.004.6.11.946-.092 1.441-.677.495-.585 1.14-1.551 1.517-2.194.378-.642.49-.96.405-1.258-.086-.297-.37-.572-.955-.802-.585-.23-1.47-.415-2.447-.425-.975-.01-2.04.154-2.964.515-.924.361-1.709.919-2.124 1.342z" fill="#FF8797"/><path fill-rule="evenodd" clip-rule="evenodd" d="M85.18 77.18c.522-1.004 2.358-2.322 1.369-2.62-1.394-.42-3.529.43-3.907 1.926-.126.504-.186 1.655.488 2.152 1.153.848 1.484-.374 2.05-1.459z" fill="#333"/><path fill-rule="evenodd" clip-rule="evenodd" d="M84.978 76.57c4.108.075 11.531.787 16.639-1.788.515-.26 1.77-.99 2.335-1.45-.208 1.24-2.498 3.012-3.613 3.75-2.244 6.686-2.448 10.79-3.142 16.34-.694 5.552-5.82 4.397-7.567.975-2.9-5.678-4.639-17.78-4.651-17.827z" fill="#333"/><path fill-rule="evenodd" clip-rule="evenodd" d="M91.184 77.481c.135 2.622 2.076 3.618 4.629 3.219 2.521-.395 3.843-1.529 4.04-4.39-2.822.786-5.721 1.126-8.67 1.171z" fill="#fff"/><path fill-rule="evenodd" clip-rule="evenodd" d="M95.944 95.462c-2.498 2.544-6.883-.116-7.133-6.235 4.895-1.337 6.515 2.1 7.133 6.235z" fill="#FF8797"/><path fill-rule="evenodd" clip-rule="evenodd" d="M66.67 55.977c-5.951.655-11.314 6.278-11.977 12.557-.664 6.28 3.622 10.839 9.573 10.183 5.951-.656 11.314-6.278 11.978-12.558.664-6.28-3.623-10.838-9.574-10.182z" fill="#fff"/><path fill-rule="evenodd" clip-rule="evenodd" d="M64.562 62.226c-4.562.502-8.204 4.76-8.133 9.51.04 2.655 1.23 4.901 3.068 6.279 1.386.632 3.004.896 4.77.701 2.505-.276 4.907-1.433 6.898-3.15 1.144-1.61 1.816-3.584 1.786-5.65-.071-4.75-3.827-8.194-8.39-7.69z" fill="#333"/><path fill-rule="evenodd" clip-rule="evenodd" d="M104.322 53.919c3.637-.548 8.582 3.079 11.044 8.1 2.462 5.022 1.509 9.538-2.128 10.085-3.638.548-8.582-3.078-11.044-8.1-2.462-5.022-1.51-9.537 2.128-10.085z" fill="#fff"/><path fill-rule="evenodd" clip-rule="evenodd" d="M104.239 58.422c2.736-.412 6.457 2.316 8.309 6.094 1.773 3.617 1.192 6.885-1.262 7.519-3.296-.657-7.049-3.864-9.093-8.031a15.75 15.75 0 01-.546-1.248c-.242-2.308.684-4.046 2.592-4.334z" fill="#333"/><path fill-rule="evenodd" clip-rule="evenodd" d="M71.558 60.87c-2.118.234-4.028 2.235-4.265 4.471-.235 2.236 1.29 3.859 3.41 3.626 2.119-.234 4.028-2.236 4.264-4.471.237-2.237-1.29-3.86-3.409-3.626zM111.659 57.022c-1.711.188-3.228 2.044-3.389 4.144-.161 2.1 1.095 3.65 2.806 3.462 1.711-.189 3.229-2.045 3.389-4.145l.005-.065a17.31 17.31 0 00-2.81-3.396h-.001z" fill="#fff"/><path fill-rule="evenodd" clip-rule="evenodd" d="M90.135 119.478l1.16 7.801c.159 1.072.698 1.102 1.26 1.029l2.701-.347c.97-.123.847-.171.73-1.353-.36-3.599-1.198-7.367-2.164-10.499l-3.687 3.369z" fill="#FF9100"/><path fill-rule="evenodd" clip-rule="evenodd" d="M92.646 120.471c-.575.068-.898.584-.72 1.153.177.569.787.975 1.362.908.576-.068.898-.583.72-1.153-.177-.569-.787-.975-1.362-.908z" fill="#FFB640"/><path fill-rule="evenodd" clip-rule="evenodd" d="M102.774 74.33c.015-.903.17-2.06.686-1.895.681.217 1.017 1.21.913 2.089-.072.605-.353 1.156-.873 1.362-.87.345-.743-.582-.726-1.557zM95.494 77.075c.319.325.558.822.659 1.368.034-.757.259-1.34.67-1.567l-1.329.2z" fill="#333"/><path fill-rule="evenodd" clip-rule="evenodd" d="M69.649 70.036c-.684.076-1.301.722-1.378 1.445-.076.722.417 1.246 1.102 1.17.684-.075 1.3-.721 1.377-1.443.076-.723-.417-1.247-1.101-1.172zM111.081 65.293c-.514.056-.979.543-1.036 1.086-.057.543.314.937.828.88.515-.056.979-.543 1.036-1.086.058-.543-.314-.937-.828-.88z" fill="#fff"/><path fill-rule="evenodd" clip-rule="evenodd" d="M63.02 47.802c-1.564.62-3.186 1.803-4.08 3.103-.894 1.3-1.06 2.718-.793 3.27.266.553.965.24 1.874-.213.909-.454 2.028-1.049 3.338-1.552 1.31-.504 2.813-.917 3.605-1.492.792-.575.873-1.31.86-1.98-.012-.668-.12-1.269-.927-1.54-.807-.273-2.313-.216-3.877.404zM96.833 45.31c-1.179.635-1.66 2.173-1.04 2.83.62.655 2.343.43 3.786.72 1.443.287 2.609 1.09 3.409 1.35.8.262 1.234-.018.97-.944-.265-.925-1.228-2.495-2.649-3.412-1.42-.917-3.297-1.181-4.476-.545z" fill="#333"/><path fill-rule="evenodd" clip-rule="evenodd" d="M111.498 106.895c3.744-1.253 5.866-1.691 7.191-4.11.621-1.135 1.406-1.473 2.457-1.324 1.822.259 2.905 2.077 1.065 4.081.193.05.018-.003.231.062 1.29.369 2.828.891 3.94 1.688.789.565 1.659 1.598 1.18 2.74 1.293 1.341 2.237 3.762-.266 4.21-.188 1.624-1.07 2.378-2.951 1.758-2.566-2.474-4.533-2.887-7.846-2.34l-5.001-6.765z" fill="#90D3FF"/><path fill-rule="evenodd" clip-rule="evenodd" d="M121.378 107.268c.191 1.383.575 2.184 1.216 2.951 1.619 1.937 2.093.93 1.982-.338-.12-1.367-.909-2.8-2.989-3.203-.194-.037-.303.168-.209.59z" fill="#fff"/><path fill-rule="evenodd" clip-rule="evenodd" d="M127.541 110.018c-.738-.798-1.492-1.328-2.019-1.535-.295-.116-.461-.162-.461-.162s.259-.282.84-.077c.648.228 1.504.926 1.64 1.774zM125.133 111.302s.357.091.687.335c.356.263 1.018.795 1.39 1.948a2.248 2.248 0 00-1.137-2.364c-.231-.126-.775-.272-.94.081z" fill="#0F99F5"/></svg>