<svg width="87" height="87" fill="none" xmlns="http://www.w3.org/2000/svg"><path fill-rule="evenodd" clip-rule="evenodd" d="M25.285 8.557c.171.265.467.41.77.41a.93.93 0 00.475-.13 33.3 33.3 0 015.437-2.585c6.523-2.41 13.976-2.887 20.985-1.34.49.108.973-.183 1.085-.65.112-.466-.192-.932-.678-1.039C46 1.6 38.173 2.1 31.316 4.635a35.153 35.153 0 00-5.739 2.728.846.846 0 00-.292 1.194zM9.738 30.12a.95.95 0 01-.257-.035.885.885 0 01-.627-1.102c2.172-7.228 6.643-13.871 12.587-18.706a.943.943 0 011.298.108.868.868 0 01-.112 1.253c-5.669 4.61-9.932 10.947-12.005 17.84a.918.918 0 01-.884.642zm67.895 27.07h-.026c-.457-.016-.813-.428-.797-.924.241-7.42-.54-14.83-2.322-22.024-.083-.334.012-.701.265-.911.515-.427 1.18-.136 1.326.458a82.591 82.591 0 012.375 22.54c-.015.482-.38.861-.821.861zm-5.084-40.106a.889.889 0 01-.707-.352C68.07 11.82 62.894 8.058 56.878 5.848a.932.932 0 01-.544-1.183.894.894 0 011.15-.56c6.334 2.327 11.788 6.297 15.771 11.481a.943.943 0 01-.148 1.3.881.881 0 01-.558.199zm8.343 25.105c.058.445.412.766.818.766a.754.754 0 00.115-.009c.452-.067.768-.516.704-1.002-1.246-9.6-3.313-16.66-6.504-22.218-.3-.524-1.025-.593-1.403-.02-.183.28-.176.654-.008.945 3.069 5.344 5.064 12.187 6.278 21.538zm-8.797 22.017a.597.597 0 01-.263-.065c-.268-.131-.442-.563-.395-.929.752-5.989.882-12.08.386-18.103-.038-.475.226-.9.592-.95.367-.047.693.292.732.766a90.076 90.076 0 01-.396 18.556c-.053.424-.335.725-.656.725zm-60.22-23.9a.899.899 0 00.95.843c.502-.02.893-.432.871-.92-.273-6.212 1.527-12.521 5.07-17.765a.866.866 0 00-.263-1.222.93.93 0 00-1.262.256c-3.75 5.55-5.656 12.229-5.366 18.807zm9.958-22.219a.93.93 0 01-.605-.218.8.8 0 01-.058-1.184c5.157-5.276 12.436-8.783 19.969-9.62.492-.055.939.273.997.732.059.46-.292.877-.785.931-7.111.791-13.984 4.103-18.855 9.087a.925.925 0 01-.663.273zm51.884 11.46a.905.905 0 00.847.572.927.927 0 00.32-.058.88.88 0 00.526-1.142C71.367 18.461 63.626 11.19 53.61 8.446c-2.657-.729-5.512-1.194-8.485-1.384a.896.896 0 00-.962.827.893.893 0 00.844.94c2.848.182 5.579.627 8.116 1.322 9.445 2.589 16.76 9.477 20.593 19.396zm-6.394 41.68a.92.92 0 01-.691-.329c-.183-.207-.228-.507-.157-.778 2.512-9.567 2.88-19.754 1.067-29.46a68.056 68.056 0 00-2.127-8.373c-.106-.326-.026-.696.227-.922a.87.87 0 011.433.372 69.837 69.837 0 012.18 8.587c1.862 9.964 1.485 20.42-1.09 30.242a.877.877 0 01-.842.662zM28.157 17.671c.171.272.45.42.733.42.17 0 .344-.054.496-.166 5.871-4.306 13.076-5.9 19.768-4.373.475.108.947-.221 1.048-.739.101-.517-.205-1.024-.683-1.134-7.158-1.633-14.859.066-21.126 4.662-.405.297-.51.892-.236 1.33zm34.283 2.424a.888.888 0 01-.597-.232 26.173 26.173 0 00-8.003-4.96c-.47-.184-.708-.728-.53-1.216a.9.9 0 011.173-.548 27.965 27.965 0 018.555 5.3.969.969 0 01.089 1.332.894.894 0 01-.687.324zm9.2 20.335c.076.423.46.721.895.721.152 0 .306-.035.473-.121a.83.83 0 00.427-.888c-1.118-6.148-2.875-13.18-7.44-18.711a.94.94 0 00-1.535.148c-.17.295-.116.661.103.926 4.312 5.223 5.997 11.993 7.076 17.925zM60.857 74.184a.772.772 0 00.276.052.817.817 0 00.765-.567 64.17 64.17 0 002.447-9.442c.083-.466-.207-.916-.649-1.004-.441-.09-.867.218-.95.684a62.426 62.426 0 01-2.378 9.178c-.153.446.066.938.489 1.1zm-38.99-34.037c-.479 0-.88-.37-.905-.847-.191-3.609.601-7.303 2.29-10.684a.913.913 0 011.215-.407c.45.218.635.754.413 1.197-1.552 3.108-2.28 6.496-2.105 9.8a.899.899 0 01-.907.941zm3.46-14.22c.165.124.36.184.552.184a.91.91 0 00.72-.348c3.216-4.113 7.877-6.996 12.784-7.91a.893.893 0 00.723-1.042.907.907 0 00-1.06-.71c-5.339.994-10.4 4.12-13.884 8.575a.882.882 0 00.165 1.25zm38.151 3.192a.881.881 0 01-.794-.5c-3.354-6.965-10.818-11.267-18.588-10.712a.883.883 0 01-.942-.821.885.885 0 01.816-.948c8.473-.608 16.635 4.096 20.3 11.707a.89.89 0 01-.792 1.274zm-9.003 47.798a1 1 0 00.73.324.941.941 0 00.858-.533c6.024-12.94 6.912-27.833 2.5-41.938-.186-.594-.957-.869-1.53-.414a.846.846 0 00-.27.92c4.288 13.7 3.429 28.16-2.419 40.714a.834.834 0 00.13.927zM34.93 24.105a.88.88 0 01-.745-.396c-.245-.385-.11-.884.3-1.114 4.946-2.77 11-3.27 16.198-1.337.445.165.663.637.486 1.055-.176.417-.679.622-1.125.455-4.63-1.721-10.251-1.253-14.67 1.222a.905.905 0 01-.444.116zm28.646 22.28a.889.889 0 00.99.773.878.878 0 00.798-.959c-.889-7.981-2.73-16.827-9.65-21.918a.914.914 0 00-1.43.514c-.086.327.064.669.342.873 6.377 4.69 8.103 13.105 8.95 20.718zm.606 14.816a.818.818 0 01-.318-.067c-.348-.14-.55-.537-.51-.943a69.57 69.57 0 00.32-9.088c-.009-.304.111-.609.347-.77.626-.426 1.296.056 1.316.725a71.745 71.745 0 01-.33 9.328c-.047.469-.407.815-.825.815zM49.062 79.248a.82.82 0 01-.4-.105c-.42-.235-.582-.786-.361-1.231a56.208 56.208 0 005.26-16.94c.071-.497.51-.842.98-.763.47.077.792.542.72 1.04a58.102 58.102 0 01-5.436 17.51.855.855 0 01-.763.489zm-18.96-39.879a.884.884 0 00.982.771.875.875 0 00.79-.957c-.254-2.3.215-4.729 1.322-6.837 2.014-3.837 5.943-6.262 10.511-6.487 4.481-.222 8.57 1.77 10.925 5.323a.909.909 0 001.506-.004.823.823 0 00.001-.924c-2.704-4.091-7.384-6.386-12.522-6.131-5.212.256-9.701 3.034-12.009 7.431-1.263 2.406-1.798 5.182-1.506 7.815zm21.119 7.794c-.504 0-.942-.332-1.01-.789a45.334 45.334 0 00-1.963-8.071.818.818 0 01.286-.932c.617-.463 1.46-.192 1.666.409a46.998 46.998 0 012.033 8.36.859.859 0 01-.46.882 1.15 1.15 0 01-.553.142zm-7.957 31.64c.182.304.458.445.73.445a.82.82 0 00.699-.404c4.373-7.18 6.633-16.793 6.535-27.8-.006-.68-.764-1.173-1.378-.658a.862.862 0 00-.284.669c.096 10.67-2.075 19.953-6.276 26.846-.166.273-.19.627-.026.901zm-3.502-40.687a.859.859 0 001.043-.622c.265-1.053 1.05-1.941 2.096-2.375 1.01-.419 2.1-.355 2.993.176a.86.86 0 001.177-.299.856.856 0 00-.299-1.175c-1.363-.81-3.015-.914-4.53-.286-1.545.64-2.705 1.964-3.103 3.54a.857.857 0 00.623 1.04zm-.787 40.13a.854.854 0 01-.485-.152.904.904 0 01-.239-1.237 44.378 44.378 0 005.218-11.026.87.87 0 011.097-.577c.46.151.712.653.564 1.122A46.176 46.176 0 0139.7 77.85a.867.867 0 01-.725.395zm6.392-16.06c.056.013.111.02.166.02.367 0 .697-.284.777-.699a49.339 49.339 0 00-1.617-24.792c-.151-.457-.607-.691-1.02-.523-.412.168-.623.674-.471 1.13a47.403 47.403 0 011.553 23.82c-.091.475.183.943.612 1.044zm-3.156-4.994h-.036l-.017-.002h-.01c-.46-.038-.805-.478-.771-.983.318-4.737-.094-9.412-1.224-13.894-.123-.489.138-.994.583-1.13.445-.134.905.152 1.028.64 1.181 4.686 1.612 9.57 1.28 14.519-.032.482-.4.85-.833.85zm-8.797 19.87a.92.92 0 00.548.179c.275 0 .547-.12.726-.35 3.713-4.765 6.286-10.524 7.44-16.654a.886.886 0 00-.73-1.028.906.906 0 00-1.059.71c-1.103 5.86-3.558 11.359-7.1 15.904a.867.867 0 00.175 1.238zm19.721-42.08c-1.312-3.131-4.215-5.287-7.764-5.767-3.6-.485-7.044.837-9.207 3.54a9.616 9.616 0 00-1.956 7.657.859.859 0 00.025.53 33.946 33.946 0 011.928 7.825.896.896 0 001.003.771.887.887 0 00.79-.98 35.599 35.599 0 00-1.547-6.857.971.971 0 00-.055-.24c-.957-2.554-.485-5.473 1.234-7.62 1.763-2.203 4.58-3.28 7.538-2.88 2.904.393 5.275 2.146 6.34 4.689 2.377 5.67 3.4 12.986 2.88 20.602a.895.895 0 00.901.937.894.894 0 00.9-.823c.538-7.877-.531-15.472-3.01-21.384zM29.37 76.05c.173.128.38.19.586.19a.97.97 0 00.738-.33c5.314-6.197 8.304-13.954 8.419-21.844.007-.483-.41-.88-.93-.886-.527.003-.948.38-.955.862-.11 7.505-2.954 14.885-8.01 20.78a.832.832 0 00.152 1.228zm-3.518-1.817a.866.866 0 01-.577-.22.898.898 0 01-.083-1.256c6.346-7.35 8.711-18.13 6.027-27.463a.892.892 0 01.598-1.104.878.878 0 011.089.606c2.847 9.902.338 21.337-6.392 29.133a.871.871 0 01-.662.304zm-4.599-2.23c.179.15.4.225.62.225.26 0 .52-.103.705-.305a27.756 27.756 0 005.364-8.5c.185-.463-.056-.983-.54-1.16-.485-.18-1.027.053-1.213.517a25.957 25.957 0 01-5.02 7.954.873.873 0 00.084 1.27zM10.045 34.152a.887.887 0 00-.75-1.013.903.903 0 00-1.036.735c-.988 6.084-.352 12.218 1.84 17.74.14.35.481.564.843.564.11 0 .22-.019.327-.06a.878.878 0 00.516-1.144c-2.077-5.23-2.679-11.047-1.74-16.822zm3.507 10.02c.465-.1.917.235 1.007.744a34.677 34.677 0 001.274 4.993c.163.487-.065 1.027-.51 1.206a.79.79 0 01-.296.058c-.35 0-.68-.236-.807-.615a36.71 36.71 0 01-1.348-5.284c-.09-.51.214-1.003.68-1.101zM26.75 19.38a.945.945 0 00-1.303-.052c-7.776 6.926-10.68 19.115-6.914 28.63.276.81.492 1.64.639 2.474a.914.914 0 00.908.743.931.931 0 00.155-.012.896.896 0 00.756-1.03 18.238 18.238 0 00-.432-1.86.861.861 0 00-.068-.374 15.11 15.11 0 01-.181-.444l-.045-.112-.027-.08c-.056-.162-.111-.324-.172-.484a.622.622 0 00-.04-.082l-.012-.023c-3.136-8.764-.389-19.734 6.683-26.033a.872.872 0 00.053-1.261zm-3.45 24.47c.19.875.435 1.748.726 2.594.033.095.046.19.048.286 2.147 7.74.405 16.12-4.701 22.195a.816.816 0 01-.627.298.81.81 0 01-.56-.23.94.94 0 01-.066-1.267c5.01-5.958 6.514-14.321 3.927-21.824a.938.938 0 01-.048-.282c-.125-.452-.239-.908-.338-1.364-.105-.483.176-.965.629-1.078.454-.11.905.19 1.01.672zm8.455-18.492a.994.994 0 00-1.338.02c-4.738 4.576-6.555 11.517-4.766 17.704a.829.829 0 00.056.353 24.07 24.07 0 011.198 13.707c-.1.48.236.944.75 1.037.06.01.12.016.18.016.445 0 .841-.294.929-.718.91-4.408.636-8.956-.776-13.246a.822.822 0 00-.053-.261c-2.331-5.913-.787-12.89 3.842-17.361a.845.845 0 00-.022-1.251zM15.18 65.99a.87.87 0 001.248-.087c2.549-2.984 4.148-6.797 4.505-10.736a.897.897 0 00-.8-.981.887.887 0 00-.96.815c-.323 3.564-1.771 7.015-4.078 9.716a.915.915 0 00.085 1.273z" fill="#23C256"/><path fill-rule="evenodd" clip-rule="evenodd" d="M19.418 54.638c-.785-3.812-1.06-9.785-1.06-9.785l15.286-3.331 1.847 14.586-5.002 5.48-10.34 2.839-1.546-6.098.815-3.691z" fill="#454545"/><path fill-rule="evenodd" clip-rule="evenodd" d="M5.125 42.52L2.23 44.34c.663 4.586 1.742 5.113 6.578 5.15 4.836.038-3.683-6.97-3.683-6.97z" fill="#5E7BFF"/><path fill-rule="evenodd" clip-rule="evenodd" d="M24.34 32.568c.344-2.599-.754-6.38-1.878-7.587-.588-.633-1.233-.476-1.598.368-.364.843-2.69 4.163-2.495 6.771.196 2.609 5.551 3.636 5.972.448z" fill="#A2BBFF"/><path fill-rule="evenodd" clip-rule="evenodd" d="M23.315 26.586c.332.993.34 1.957.227 2.426-.182.759-.883.802-1.654.678-.771-.125-1.528.005-2.06.287-.442.234-1.046.21-.869-.75-.39.974-.662 2.009-.59 2.95.196 2.548 5.552 3.552 5.972.438.253-1.874-.28-4.373-1.026-6.03z" fill="#5E7BFF"/><path fill-rule="evenodd" clip-rule="evenodd" d="M23.823 31.89c-2.2-.49-4.719-.58-6.747.83-2.028 1.411-4.8 4.48-5.628 5.477-.828.995-3.518 2.24-4.677 2.696-1.159.456-1.894.67-2.525 1.203l.207 2.573.331 2.364.828 1.162c.538 1.535 1.614 3.443 4.76 3.277 3.145-.166 6.042-1.328 9.188-1.577 3.145-.248 8.36.955 11.464-.746 3.104-1.701 4.387-5.56 2.732-10.703-1.656-5.145-4.595-5.95-6.621-6.099-1.298-.095-2.143-.195-3.312-.456z" fill="#A2BBFF"/><path fill-rule="evenodd" clip-rule="evenodd" d="M12.99 41.315c2.68-.454 5.603-1.213 8.254-3.907 2.651-2.693 3.252-4.427 6.914-4.156.576.042.992-.072 1.285-.295-.893-.425-1.774-.572-2.527-.626-1.285-.093-2.122-.191-3.28-.447-2.18-.48-4.674-.569-6.682.813-2.009 1.38-4.755 4.386-5.575 5.361-.82.975-3.484 2.193-4.633 2.64-1.147.447-1.875.655-2.5 1.178l.133 1.639h1.944c2.432-.866 3.989-1.746 6.667-2.2z" fill="#D0DFFF"/><mask id="a" maskUnits="userSpaceOnUse" x="2" y="41" width="7" height="7"><path fill-rule="evenodd" clip-rule="evenodd" d="M2.23 41.537h6.037v5.91H2.23v-5.91z" fill="#fff"/></mask><g mask="url(#a)"><path fill-rule="evenodd" clip-rule="evenodd" d="M3.924 41.714S2.74 42.688 2.425 43c-.315.312-.197.935 0 1.676 1.558.857 1.716 2.864 2.8 2.767-.118-.935 0-1.715.553-1.949 1.518.234 2.405-.662 2.484-1.539.061-.679-.493-1.403-1.735-1.968-.786-.357-2.148-.652-2.603-.273z" fill="#454545"/></g><path fill-rule="evenodd" clip-rule="evenodd" d="M25.413 32.828c-.027.703 1.176.79 1.993.993.817.204 2.666.859 3.195 1.581.528.722 1.369 1.535 1.993.925.625-.609 3.267-6.011.961-10.114-.456-.812-1.322-.857-1.777 0-.456.858-2.21 2.191-3.531 3.252-1.321 1.06-2.786 2.122-2.834 3.363z" fill="#D0DFFF"/><path fill-rule="evenodd" clip-rule="evenodd" d="M32.392 30.134c.224-2.14-.089-2.617-.47-2.549-.38.068-.434.555-.714.842-.822.845-2.1 1.684-3.173 2.504-.918.701-1.44 1.87-1.615 2.947.149.033.295.066.43.103.75.201 2.43.849 2.948 1.565 1.153-.9 2.383-3.389 2.595-5.412z" fill="#5E7BFF"/><path fill-rule="evenodd" clip-rule="evenodd" d="M20.016 39.174c.956.578 1.493.392 2.011-.103.518-.496 1.515-1.63 2.052-2.167.537-.537.372-1.288-.24-1.699-2.269-1.52-7.742-2.387-9.589-.814a47.474 47.474 0 00-2.738 3.05c-.06.073-.133.15-.211.226h.001c1.623-1.123 6.76.325 8.714 1.507z" fill="#FA3E6D"/><path fill-rule="evenodd" clip-rule="evenodd" d="M11.441 72.256s-1.103-.855-2.336-.855c-1.234 0-2.565.112-3.633 1.132-.973.93-1.226 2.213-1.226 2.863 0 .65.505.985 1.118.985h7.953l-1.876-4.125z" fill="#7D7D7D"/><path fill-rule="evenodd" clip-rule="evenodd" d="M11.441 72.256s-1.103-.855-2.336-.855c-.185 0-.371.004-.559.012.274.11.363.34.08.7-.395.506-.436 1.42-.34 2.008.095.588-.028 1.123-.779 1.123H5.923c-.888 0-1.382-.399-1.515-.895a4.007 4.007 0 00-.162 1.047c0 .65.505.985 1.118.985h7.953l-1.876-4.125z" fill="#454545"/><path fill-rule="evenodd" clip-rule="evenodd" d="M24.64 70.405c3.044-.06 5.513 1.002 6.48 2.575.75 1.216.323 3.398-1.976 3.398H13.07c-2.872 0-4.038-1.295-3.74-2.894.287-1.538 1.84-2.11 3.924-2.15 3.412-.065 8.846-.88 11.386-.93z" fill="#A2BBFF"/><path fill-rule="evenodd" clip-rule="evenodd" d="M24.52 75.474c-3.275-1.277-6.125-1.076-7.909-1.076-1.368 0-1.158.742-3.553.816-1.462.046-2.997-.214-3.773-.744.171 1.102 1.322 1.909 3.59 1.909H25.41c-.035-.33-.289-.67-.89-.905z" fill="#5E7BFF"/><path fill-rule="evenodd" clip-rule="evenodd" d="M43.89 56.46c2.14 1.252 8.443 1.413 11.069 0l1.697 1.816-1.94 16.29-1.656.817c-2.02-.767-8.254-2.26-14.732-1.251l-.822-2.192 4.207-14.874 2.176-.605z" fill="#7D7D7D"/><path fill-rule="evenodd" clip-rule="evenodd" d="M38.358 74.154c6.712-.992 13.172.476 15.266 1.23l1.716-.803.308-2.448c-3.102-1.648-9.647-3.341-13.956-2.501l-3.624.48L37.506 72l.852 2.155z" fill="#454545"/><path fill-rule="evenodd" clip-rule="evenodd" d="M22.653 59.504c1.498.583 2.868-.493 3.696-1.479.827-.986 3.971-4.548 5.682-4.931 1.71-.383 2.483-.932 2.759-1.315.276-.384 1.71-.493 3.31.274s2.208 1.26 3.586 1.808c1.38.548 3.697 1.533 3.862 3.451.166 1.918-.717 10.3-1.655 13.314-.938 3.014-5.02 5.753-10.482 5.753s-10.598-1.15-14.348-6.026c-3.749-4.877-2.645-10.3-2.314-12.711.331-2.411 2.315-3.498 2.315-3.498s1.05 4.374 3.589 5.36z" fill="#A2BBFF"/><path fill-rule="evenodd" clip-rule="evenodd" d="M18.426 58.983c1.425 1.871 4.394 2.165 6.985-.423-.81.688-1.9 1.22-3.072.798-2.5-.9-3.535-4.89-3.535-4.89s-.768.39-1.421 1.225c-.15.92.172 2.146 1.043 3.29z" fill="#D1E0FF"/><path fill-rule="evenodd" clip-rule="evenodd" d="M33.203 76.378c5.357 0 9.36-2.665 10.28-5.597.395-1.258.78-3.476 1.077-5.747-.484-1.047-1.273-2.094-2.563-2.775-2.895-1.528-5.769-.816-7.397 1.279-1.726 2.218-1.317 5.277.631 7.153 1.622 1.562 1.218 2.302-2.881 2.222-4.1-.08-6.818.24-9.66-3.119-2.84-3.358-2.962-2.402-2.637-.481.214 1.267-1.459.246-2.705-1.968a12.383 12.383 0 001.783 3.17c3.677 4.744 8.714 5.863 14.072 5.863z" fill="#5E7BFF"/><path fill-rule="evenodd" clip-rule="evenodd" d="M70.304 38.536h.59c.226-.693 1.003-1.245 1.887-1.185l-.845-3.794c-.452 1.144-1.829 2.308-3.186 2.61v.923l1.554 1.446zM76.585 32.946l1.015-.387c.375.599 2.35 1.834 4.254 2.021l-.055.774-2.823 2.184-.694-.058c-.181-.653-1.057-1.053-2.03-.99l-.445-.537.778-3.007zM80.386 40.842l-.446.623c.867.674.408 1.88-.102 2.088l.217.493 4.376.467.446-.403c-.6-.778-.932-3.24-.549-4.214l-.675-.363-3.267 1.31zM79.57 47.499l-.78.129c.185.712-1.053 2.41-1.976 2.551l.117.808 3.472 3.483h.78c.13-.986 1.477-3.378 2.687-3.893l-.294-.77-4.005-2.308z" fill="#454545"/><path fill-rule="evenodd" clip-rule="evenodd" d="M71.773 53.54s3.656-3.022 4.174-3.462c.517-.44 1.254-.935 2.263-.247 1.01.687 3.027 2.968 3.41 3.71.381.742.354 1.593-.546 2.28-.9.688-4.718 3.628-4.718 3.628l-4.583-5.908z" fill="#A2BBFF"/><path fill-rule="evenodd" clip-rule="evenodd" d="M76.356 59.45s3.818-3.001 4.718-3.703c.9-.701.927-1.57.545-2.327-.096-.19-.293-.478-.553-.814.778 1.659-2.457 3.498-4.42 1.608-1.234-1.187-3.066-1.926-2.58-2.732l-.002.002-2.29 1.936 4.582 6.03z" fill="#5E7BFF"/><mask id="b" maskUnits="userSpaceOnUse" x="77" y="42" width="9" height="9"><path fill-rule="evenodd" clip-rule="evenodd" d="M77.924 42.58h7.91v7.794h-7.91v-7.795z" fill="#fff"/></mask><g mask="url(#b)"><path fill-rule="evenodd" clip-rule="evenodd" d="M78.091 46.13c-.387.93-.078 1.304.681 1.794.758.49 3.167 1.902 3.84 2.29.672.388 2.186.073 2.52-.998.334-1.07.656-3.609.699-4.496.042-.887-.402-1.675-1.499-1.787-1.096-.11-2.875-.247-3.861-.336-.987-.09-1.373.157-1.541.89-.196.857-.421 1.636-.839 2.643z" fill="#A2BBFF"/></g><path fill-rule="evenodd" clip-rule="evenodd" d="M79.129 40.817c.386.777.785.797 1.495.6.708-.196 2.867-.9 3.466-1.101.6-.199.974-1.225.692-2.157-.32-1.058-1.425-2.606-2.306-3.291-.598-.465-1.445-.433-2.092.192-.646.625-1.577 1.76-2.12 2.36-.543.601-.57.988-.167 1.493.473.587.614 1.064 1.032 1.904zM75.486 36.509c.751.106.978-.15 1.22-.717.239-.564.895-2.335 1.073-2.829.18-.493-.227-1.303-1.2-1.386-.843-.072-3.16.189-3.81.35-.653.159-1.124.605-.965 1.32.162.714.453 1.865.604 2.505.152.64.416.832.983.785.663-.058 1.283-.142 2.095-.028zM70.018 35.946c-.426-.454-1.206-.652-1.725.14-.518.793-.995 1.876-1.294 2.594-.3.719-.446 1.757.118 2.44.564.682 1.638.385 2.164-.045.526-.43 1.155-.942 1.716-1.418.563-.475 1.11-1.291.527-2.017-.584-.724-1.022-1.178-1.506-1.694zM55.974 54.813c-1.602.55-2.231 1.36-1.942 3.173.29 1.813.726 6.88-.071 10.754-.797 3.873-1.251 5.521-1.334 7.046-.083 1.524 2.273 2.142 6.033 2.101 3.76-.041 11.363 2.019 15.413-2.06 4.05-4.08 6.694-12.279 2.975-18.624-3.719-6.346-11.942-6.181-14.545-5.233-2.603.948-4.132 2.019-6.529 2.843z" fill="#A2BBFF"/><path fill-rule="evenodd" clip-rule="evenodd" d="M55.222 57.274c-.259-1.294-.56-1.793-.913-1.807-.603.514-.798 1.232-.599 2.328.32 1.761.804 6.686-.078 10.45-.425 1.809-.76 3.116-1.007 4.152 2.698-5.567 3.666-9.785 2.597-15.123z" fill="#D1E0FF"/><path fill-rule="evenodd" clip-rule="evenodd" d="M58.695 76.912c3.782-.04 11.428 1.939 15.501-1.98 2.28-2.192 4.114-5.626 4.634-9.292-.462-.894-.998-1.913-1.453-2.737-1.248-2.257-3.245-4.492-6.312-5.19-2.88-.656-6.361-.116-8.605 2.496-1.452 1.69-2.625 5.617-.206 8.813.86 1.135.86 2.402-.941 2.982-1.801.58-3.713.707-5.43.789-1.718.082-2.588.827-2.827-.563-.24 1.107-.386 1.902-.429 2.663-.083 1.464 2.286 2.058 6.068 2.019z" fill="#5E7BFF"/><path fill-rule="evenodd" clip-rule="evenodd" d="M68.022 70.828c.643.618.726 3.215-1.288 3.109l4.526 5.428c.353-1.682 2.386-2.874 4.296-1.703l.25-1.575-2.533-3.79-4.027-1.895-1.224.426z" fill="#454545"/><path fill-rule="evenodd" clip-rule="evenodd" d="M65.161 60.127c-2.803 1.234-4.418 4.961-2.856 8.13 1.433 2.908 3.745 3.915 5.982 4.797 2.237.881 3.988 2.397 4.635 3.83.647 1.434.943 2.48 2.587 2.48 1.644 0 2.667-1.377 3.152-3.252.382-1.474.126-4.023-.898-6.145-1.108-2.296-1.606-3.472-2.578-5.43-1.778-3.583-5.389-6.45-10.024-4.41z" fill="#A2BBFF"/><path fill-rule="evenodd" clip-rule="evenodd" d="M72.782 65.923c0 1.925-1.58 3.486-3.528 3.486s-3.527-1.561-3.527-3.486c0-1.925 1.579-3.486 3.527-3.486 1.948 0 3.528 1.561 3.528 3.486zM39.557 73.521c.58 1.008-1.267 2.088-3.059 1.215l2.386 4.63c.374-1.157 1.83-1.648 2.875-.994l.786-1.348-2.282-4.63-.706 1.127z" fill="#454545"/><path fill-rule="evenodd" clip-rule="evenodd" d="M38.196 61.465c-2.141.194-4.093 2.224-3.65 4.99.356 2.223 1.664 3.123 2.974 4.194 1.309 1.072 1.887 2.52 2.283 3.538.395 1.017 1.026 4.111 2.183 4.18 1.155.07 1.793-1.532 2.212-2.806.33-1.002.422-2.988.329-4.856-.09-1.769-.168-2.534-.563-4.135-.667-2.698-2.227-5.425-5.768-5.105z" fill="#A2BBFF"/><path fill-rule="evenodd" clip-rule="evenodd" d="M41.412 67.694c-.433 1.306-1.856 2.018-3.178 1.591-1.322-.428-2.044-1.833-1.61-3.14.432-1.306 1.855-2.019 3.177-1.591a2.483 2.483 0 011.611 3.14z" fill="#454545"/><path fill-rule="evenodd" clip-rule="evenodd" d="M53.565 75.241s-1.226-.854-2.596-.854c-1.371 0-2.85.111-4.036 1.13-1.081.93-1.363 2.214-1.363 2.865 0 .65.562.984 1.243.984h8.836l-2.084-4.125z" fill="#7D7D7D"/><path fill-rule="evenodd" clip-rule="evenodd" d="M53.565 75.241s-1.226-.854-2.596-.854c-.34 0-.687.007-1.034.033.845.023 1.1.405.619.9-.601.62-.576 1.556-.435 2.095.209.803-.532.836-1.64.836-2.247 0-2.761-.121-2.672-1.081-.171.473-.237.91-.237 1.212 0 .65.562.984 1.243.984h8.836l-2.084-4.125z" fill="#454545"/><path fill-rule="evenodd" clip-rule="evenodd" d="M64.074 73.395c3.438-.069 6.226 1.17 7.32 3.005.845 1.419.363 3.964-2.233 3.964H54.884c-3.243 0-4.56-1.51-4.224-3.376.324-1.795 2.078-2.462 4.432-2.508 3.853-.075 6.113-1.027 8.982-1.085z" fill="#A2BBFF"/><path fill-rule="evenodd" clip-rule="evenodd" d="M20.512 76.24s-1.103-.855-2.337-.855c-1.234 0-2.565.112-3.633 1.132-.973.93-1.226 2.212-1.226 2.862 0 .65.505.985 1.118.985h7.953l-1.875-4.124z" fill="#7D7D7D"/><path fill-rule="evenodd" clip-rule="evenodd" d="M20.512 76.232s-1.042-.8-2.232-.847c.096.124.08.296-.101.526-.48.606-.876 1.536-.835 2.34.04.802-.505 1.211-1.489 1.211-1.256 0-2.393.036-2.392-1.083-.106.39-.147.744-.147.999 0 .651.505.986 1.118.986h7.953l-1.875-4.132z" fill="#454545"/><path fill-rule="evenodd" clip-rule="evenodd" d="M33.712 74.39c3.044-.06 5.513 1.001 6.48 2.575.75 1.215.323 3.397-1.975 3.397H22.142c-2.872 0-4.037-1.294-3.74-2.894.288-1.538 1.84-2.11 3.925-2.15 3.411-.064 8.845-.88 11.385-.929z" fill="#A2BBFF"/><path fill-rule="evenodd" clip-rule="evenodd" d="M44.196 67.416c.456 2.435-.317 6.745-1.214 8.133-.902 1.396-2.25 1.99-3.46-.685.45 1.364 1.11 3.447 2.152 3.504 1.295.073 2.01-1.589 2.48-2.91.37-1.039.473-3.098.368-5.035-.07-1.297-.137-2.077-.326-3.007zM40.193 77.253a3.773 3.773 0 00-.862-.874c1.056 1.249.488 2.758-1.94 2.758-2.65 0-14.224.048-15.981 0-1.305-.035-2.669-.293-3.053-.97.013 1.247 1.213 2.195 3.782 2.195h16.077c2.299 0 2.726-1.996 1.977-3.11zM77.729 70.232c-.15-.292-.288-.564-.418-.823.694 2.423.657 5.37-.108 6.75-.98 1.769-2.335 2.09-3.69.563-1.093-1.231-2.326-2.09-3.755-2.633 1.42.826 2.495 1.866 2.976 2.868.667 1.393.973 2.411 2.669 2.411 1.696 0 2.752-1.34 3.252-3.162.394-1.433.13-3.911-.926-5.974zM71.393 76.338c-.2-.34-.455-.658-.76-.953.626 1.473-.084 3.17-1.693 3.213-2.136.057-6.767 0-8.374 0h-6.96c-1.399 0-2.462-.286-2.997-1.003.055 1.58 1.416 2.77 4.272 2.77h14.28c2.596 0 3.078-2.586 2.232-4.027zM9.906 51.472c3.075-.162 5.907-1.294 8.981-1.536 3.075-.243 8.173.93 11.207-.728 3.034-1.657 4.288-5.416 2.67-10.428-.028-.086-.059-.161-.087-.245.47 4.06-.71 8.226-4.484 9.747-2.265.914-6.252.652-8.356.44-2.91-.292-7.188.799-9.557 1.524-2.37.725-4.23-.216-5.026-1.968.526 1.496 1.578 3.355 4.652 3.194z" fill="#5E7BFF"/><path fill-rule="evenodd" clip-rule="evenodd" d="M15.222 34.635c-1.153.949-2.19 2.061-2.913 2.903.435-.038.895-.04 1.38 0 .928-.89 2.228-2.024 3.659-2.95a9.651 9.651 0 00-2.126.047zM23.198 36.296c.395-.382.238-.853-.854-1.336-.263-.116-.724-.267-1.322-.41-1.691.525-3.482 1.414-4.682 2.065.685.137 1.385.314 2.092.551.39.13.725.26 1.028.372.979-.223 2.075-.469 3.138-.695.256-.221.475-.426.6-.547z" fill="#FFC8C8"/><path fill-rule="evenodd" clip-rule="evenodd" d="M84.634 43.514c.269.948.12 2.058-.136 3.306-.337 1.647-1.134 2.009-1.705 2.11-.51.091-2.323.048-3.965-1.205.133.156.318.3.554.456.698.46 2.916 1.788 3.535 2.154.619.365 2.013.068 2.32-.94.308-1.006.605-3.393.644-4.227.037-.794-.339-1.498-1.247-1.654zM84.778 38.066c-.227-.753-.839-1.742-1.493-2.517.484 1.059.637 2.25.183 3.147-.514 1.013-2.946 2.243-4.64 1.754.053.113.102.22.166.349.394.799.803.82 1.53.617.724-.201 2.933-.926 3.546-1.132.613-.205.996-1.26.708-2.218zM76.608 31.577a7.031 7.031 0 00-.898.005c.79.379.787 1.418.355 2.573-.552 1.477-1.832 2.406-3.284 2.163.16.187.383.247.714.22.647-.059 1.253-.143 2.046-.03.733.107.954-.15 1.19-.715.234-.565.876-2.336 1.05-2.83.174-.493-.223-1.304-1.173-1.386zM71.52 38.209a18.38 18.38 0 00-.674-.668c-.04.835-.938 1.942-1.629 2.52-.683.57-1.85 1.038-2.483.582.06.193.16.376.316.536.572.583 1.661.33 2.195-.038.534-.368 1.171-.804 1.741-1.21.57-.406 1.126-1.103.534-1.722z" fill="#5E7BFF"/></svg>