<svg xmlns="http://www.w3.org/2000/svg" width="69" height="30"><g fill="none" fill-rule="evenodd"><path d="M0 0h69v30H0z"/><path fill="#B1BDCC" d="M13.512 13.6s1.182.055 1.274.884c.021.065.016.47 0 .493-.153.975-1.179 1.023-1.179 1.023H12.7v-2.4h.812zm24.657 3.9c-.47.602-.932 1.38-1.319 2.1l1.95-.639-.631-1.461zm6.796-.028l.585.178a1.09 1.09 0 01-.186.415.807.807 0 01-.314.25 1.168 1.168 0 01-.478.085c-.234 0-.426-.034-.575-.103a.914.914 0 01-.385-.363c-.108-.173-.162-.394-.162-.664 0-.36.095-.637.285-.83.19-.193.459-.29.806-.29.272 0 .486.055.642.166.155.111.27.281.346.51l-.589.133a.384.384 0 00-.383-.306.391.391 0 00-.347.184c-.061.09-.091.234-.091.428 0 .242.036.407.109.496.072.09.174.134.306.134.127 0 .224-.036.29-.108a.673.673 0 00.141-.315m1.556-.193c0 .22.04.378.122.474a.413.413 0 00.333.144.413.413 0 00.335-.141c.078-.094.118-.263.118-.506 0-.205-.041-.355-.124-.45a.422.422 0 00-.335-.14.407.407 0 00-.326.143c-.082.096-.123.255-.123.476m-.671-.003c0-.355.099-.631.296-.83.198-.197.473-.296.825-.296.362 0 .64.097.836.292.195.194.293.466.293.817 0 .254-.043.462-.128.625a.915.915 0 01-.37.38 1.22 1.22 0 01-.604.136c-.245 0-.448-.04-.608-.117a.916.916 0 01-.39-.371c-.1-.17-.15-.381-.15-.636M48.55 16.3h.921l.356 1.369.352-1.369h.921v2.25h-.574v-1.716l-.442 1.716h-.519l-.441-1.716v1.716h-.574zM52.113 17.26h.174c.137 0 .233-.024.289-.07a.223.223 0 00.083-.18c0-.07-.024-.13-.072-.179-.048-.05-.139-.074-.272-.074h-.202v.502zm-.713-.96h1.18c.257 0 .45.06.578.18.128.12.192.29.192.51 0 .228-.07.405-.21.533-.139.128-.352.192-.638.192h-.389v.835H51.4V16.3zM53.65 16.3h.703v1.696h1.097v.554h-1.8zM55.75 18.55h.75V16.3h-.75zM58.085 17.692l-.243-.809-.241.81h.484zm.141.487h-.773l-.108.371h-.695l.829-2.25h.743l.828 2.25h-.713l-.11-.371zM59.35 16.3h.634l.826 1.245V16.3h.64v2.25h-.64l-.822-1.235v1.235h-.638zM61.75 16.3h2.1v.556h-.705v1.694h-.69v-1.694h-.705z"/><path fill="#B1BDCC" d="M31.343 6.636c1.188 0 2.15.91 2.15 2.032 0 1.122-.962 2.032-2.15 2.032-1.187 0-2.15-.91-2.15-2.032 0-1.122.963-2.032 2.15-2.032M12.852 18.028a.05.05 0 00-.053.05v2.671a.053.053 0 01-.053.053H9.318a.053.053 0 01-.052-.053v-9.12c0-.029.024-.053.053-.053h4.442c1.13-.053 4.563.265 4.563 3.169 0 3.68-5.472 3.283-5.472 3.283m16.732 1.25V11.58h3.519v5.739c1.24-1.79 2.557-3.614 2.997-4.22l-3.876-8.65L3.85 6.064l7.86 21.486 15.133-4.778c-.424-.613-.73-1.278-.844-1.898h-.024c-.107 0-1.123.04-1.641 0-5.307-.336-5.307-4.128-5.307-4.239v-.9c0-.17.19-3.88 5.307-4.29.34-.048 1.566-.042 1.641 0 1.409.084 1.87.385 1.87.385.027.014.047.05.047.08v2.33c0 .03-.02.042-.046.027 0 0-.823-.507-1.848-.646h-.869c-2.32.196-2.48 2.059-2.48 2.059a.905.905 0 00-.007.105v.666c0 .03.002.077.006.105 0 0 .112 1.739 2.481 2.138.17.028.396.053.87 0 1.67-.163 2.05-.47 2.05-.47.025-.015.044-.004.044.025v.383c.493.083 1.004.315 1.49.645"/><path fill="#96A0B3" d="M31.405 25.3c.285 0 .504 0 .864-.161 1.247-.66 5.442-10.985 9.867-14.16a.401.401 0 00.084-.08c.029-.042.03-.085.03-.085s0-.213-.656-.213c-3.94-.108-8.036 8.213-10.19 11.505-.026.037-.174 0-.174 0s-1.443-1.715-2.697-2.373a.758.758 0 00-.317-.047c-.099 0-.682.119-.954.407-.32.342-.314.533-.311.949 0 .034.021.17.061.24.307.54 1.707 2.48 2.854 3.55.177.128.447.468 1.539.468"/><path fill="#B1BDCC" d="M45.564 9.397v3.939h.543c.464 0 .793-.052.99-.155.195-.103.348-.283.46-.54.11-.258.166-.675.166-1.252 0-.764-.124-1.287-.372-1.57-.248-.281-.66-.422-1.234-.422h-.553zm-2.218-1.633h3.295c.65 0 1.174.089 1.574.266.4.177.73.431.99.762.262.331.451.716.569 1.156.117.44.176.905.176 1.396 0 .77-.087 1.368-.262 1.793-.175.424-.417.78-.727 1.067-.31.287-.643.478-.998.573a5.122 5.122 0 01-1.322.197h-3.295v-7.21zm7.212 4.825l2.11-.133c.045.344.138.606.279.787.228.291.554.437.979.437.316 0 .56-.074.731-.223.172-.15.257-.323.257-.52 0-.186-.081-.353-.244-.5-.164-.148-.542-.288-1.136-.419-.973-.22-1.666-.511-2.08-.875a1.764 1.764 0 01-.627-1.392c0-.37.107-.72.32-1.05.214-.33.536-.588.965-.777.43-.188 1.017-.283 1.765-.283.917 0 1.616.172 2.097.514.482.343.768.888.86 1.635l-2.09.123c-.056-.324-.173-.56-.35-.708-.179-.147-.424-.221-.738-.221-.257 0-.452.055-.582.165a.505.505 0 00-.196.4c0 .115.054.218.162.31.104.095.352.184.744.266.969.21 1.663.422 2.082.637.42.214.725.48.916.799.19.318.286.674.286 1.067 0 .462-.127.888-.382 1.279-.254.39-.61.686-1.067.887-.457.202-1.033.303-1.728.303-1.22 0-2.065-.236-2.535-.709-.47-.472-.736-1.072-.798-1.8m7.069 0l2.11-.132c.045.344.138.606.279.787.228.291.554.437.978.437.317 0 .561-.074.732-.223.172-.15.257-.323.257-.52 0-.186-.081-.353-.244-.5-.164-.148-.542-.288-1.136-.419-.973-.22-1.666-.511-2.08-.875a1.764 1.764 0 01-.627-1.392c0-.37.107-.72.32-1.05.214-.33.536-.588.965-.777.429-.188 1.017-.283 1.765-.283.917 0 1.616.172 2.097.514.481.343.768.888.86 1.635l-2.091.123c-.056-.324-.172-.56-.35-.708-.178-.147-.423-.221-.737-.221-.258 0-.452.055-.582.165a.506.506 0 00-.196.4c0 .115.054.218.162.31.104.095.352.184.744.266.969.21 1.663.422 2.082.637.42.214.725.48.916.799.19.318.286.674.286 1.067 0 .462-.127.888-.382 1.279-.254.39-.61.686-1.067.887-.457.202-1.033.303-1.728.303-1.22 0-2.065-.236-2.535-.709-.47-.472-.736-1.072-.798-1.8"/></g></svg>