<?xml version="1.0" encoding="utf-8"?>
<!-- Generator: Adobe Illustrator 23.0.3, SVG Export Plug-In . SVG Version: 6.00 Build 0)  -->
<svg version="1.1" id="Layer_1" xmlns="http://www.w3.org/2000/svg" xmlns:xlink="http://www.w3.org/1999/xlink" x="0px" y="0px"
	 viewBox="0 0 512 512" style="enable-background:new 0 0 512 512;" xml:space="preserve">
<style type="text/css">
	.st0{fill:#607D8B;}
	.st1{fill:#FAFAFA;}
</style>
<path class="st0" d="M453.3,0H58.7C26.3,0,0,26.3,0,58.7v394.7C0,485.7,26.3,512,58.7,512h394.7c32.4,0,58.7-26.3,58.7-58.7V58.7
	C512,26.3,485.7,0,453.3,0z"/>
<path class="st1" d="M368,277.3h-90.7V368c0,11.8-9.5,21.3-21.3,21.3s-21.3-9.6-21.3-21.3v-90.7H144c-11.8,0-21.3-9.6-21.3-21.3
	s9.5-21.3,21.3-21.3h90.7V144c0-11.8,9.5-21.3,21.3-21.3s21.3,9.6,21.3,21.3v90.7H368c11.8,0,21.3,9.6,21.3,21.3
	S379.8,277.3,368,277.3z"/>
</svg>
