<svg width="1274" height="368" fill="none" xmlns="http://www.w3.org/2000/svg"><mask id="a" maskUnits="userSpaceOnUse" x="-19" y="0" width="1311" height="368"><path fill-rule="evenodd" clip-rule="evenodd" d="M-19 0h1311v368H-19V0z" fill="#fff"/></mask><g mask="url(#a)" fill-rule="evenodd" clip-rule="evenodd"><path d="M719.702 320.77l-49.436-2.402-47.119-10.197-44.371 4.445-52.912-13.079-37.415-13.542-44.275-19.296-73.007-4.723-16.218-12-18.644-7.198-35.213 6.253-33.632-10.156s-33.364-.421-37.528-1.244c-4.163-.82-45.558-22.188-45.558-22.188l-72.064-16.857-17.995-.033-26.9-3.545-24.671-12.788-27.225-7.133-23.244.695-36.457-9.445-24.42-19.211-40.895-18.247-30.017 45.543-22.342 98.555 876.588 186.147 4.97-138.354z" fill="#F0F5FA"/><path d="M-177.24 271.454l78.56-17.341 37.628-9.611 45.747 18.518 50.48 6.58 44.494-11.911 47.729 11.666 25.147 5.455 45.429-7.766 54.091-6.07 51.992 11.882 31.68 12.395 56.628-3.467 71.839 14.738 69.57 25.583 107.971 7.394 86.316 19.453 26.042 64.508-927.211-39.418-4.132-102.588z" fill="#DFE8F0"/><path d="M1608.3 236.847l-78.56-17.341-37.63-9.611-45.74 18.518-50.49 6.58-44.49-11.911-47.73 11.665-25.14 5.456-45.43-7.766-54.09-6.07-52 11.881-31.68 12.396-56.62-3.467-71.843 14.738-69.57 25.582-107.972 7.395-86.316 19.453-26.042 64.508 927.213-39.418 4.13-102.588z" fill="#F0F5FA"/><path d="M96.343 248.082l-21.009 15.95-40.332-10.113-38.977-11.284-31.91 16.675-35.57-13.953-26.862 12.625-23.332 23.911-27.854-7.837-67.548 43.518 14.184 44.428 627.271-4.656 14.929-40.66-96.078-38.16-67.581-30.566-39.936 10.359-94.827-23.452-44.568 13.215z" fill="#E1E9F0"/><path d="M62.574 293.68l-9.237-2.119-37.157 7.009 63.72 78.79 456.543 1.155-54.398-38.41-29.151-24.919-10.814.177-5.51-3.503-14.524 1.147-.061-.014-.343-2.272-5.043-5.086-4.033-1.703-3.094 5.478-.935.758-.821-.175-8.575-3.696-.826.425a115.267 115.267 0 00-1.333-2.856l-3.144-2.539s-4.711 1.954-4.746 2.452c-.024.335-1.561 2.18-2.568 3.357l-1.041-.461-7.775-4.353-6.231 4.34-1.133-.69-.184-1.909-2.754-2.207-1.227-3.198s-3.856 1.615-4.084 1.898c-.226.284-1.41 2.3-1.41 2.3l-2.454-3.49-2.979-1.926-3.278 2.258-2.894 2.689-.215.706-1.044-.739-9.202 2.082-5.178-2.948-1.142-2.76-3.423-1.558-1.556 1.485-2.611 1.607-2.879 2.493-.456.444-.794.185-7.951-5.748-10.352 4.22-5.335-1.215-2.127-3.716-3.312-3.152-5.545 1.989-2.042 2.452-1.912-2.346-2.149-1.964-3.271-.747-2.486 2.82-2.273-.172-3.716-.376s-.22.91-.467 1.856l-2.849.038-6.94 1.852-.348-.733-1.014-3.28-2.953-2.326-2.552.809-2.042 2.452-1.163 1.237-.93-.335-.236.114-.189-.7-2.416-1.084-2.6 1.509-2.404 1.623-.826 2-6.987-3.16-8.832 3.029-1.45-1.621-5.848-2.539-4.52 2.163-1.984.597-2.671-1.989-9.696-1.403-4.005 1.915-2.236-1.759-5.502 1.389-3.535 2.942-.69.452-7.757-4.247-6.339 1.18-.149-.706-2.98-1.926-5.754 3.506-8.637-2.838-5.672 3.075-1.578-3.359-4.942 2.305-3.484-2.702-8.208-1.831-5.912 2.302-2.061-1.815-3.356.45-2.175 2.054-2.595-1.722-4.993 1.011-2.188 3.484-4.374-3.277-8.017-1.997-10.028.897-6.623-5.128-9.828 4.487z" fill="#DAE2EB"/><path d="M247.711 364.205l2.223-10.308 5.615-10.122 9.425 19.309 1.566-7.896 5.321-8.067 5.839 4.838 6.877-6.776 7.194 10.564 6.155-6.063 5.054-5.334 6.012 9.255 5.567-1.952 6.637-3.364 3.194 4.621 4.733-3.958 4.603 2.174 6.488-7.1 4.118-.525 4.524 9.662 7.711-4.772 5.498-3.652 6.054 10.274 5.765-6.387 5.338 1.8 4.187 1.173 2.801-5.23 5.542 6.893 4.103-.867 5.204-1.596 1.61 2.649 3.848-7.319 4.402 6.606 3.944 4.584 3.647-2.886 5.368 2.479 8.316 4.101 8.601-2.615 3.103 5.355 6.375-.854 16.324 8.734-21.939 13.523-204.482-11.765-24.282-14.552-1.064-7.776 5.765-6.387 6.427.732 3.904 3.565 5.942-1.969 1.772 6.723 5.311 1.121 2.816-4.89.944 14.247z" fill="#CBD5DF"/><path d="M-94.277 423.258l119.846 26.975 266.227-.514s74.22-41.517 74.083-44.699c-.14-3.181-129.156-51.388-129.156-51.388l-37.93-23.616-47.808 1.319-36.062-49.212L76.6 272.34l-33.457 10.169-54.96-2.575-67.203-31.719-15.257 175.043z" fill="#CBD5DF"/><path d="M1004.99 229.303l-30.484 20.104-48.996 20.108-72.947 11.169-54.44 20.105-30.486 23.455-38.107 4.466-43.552 13.404-39.193 26.808-32.667-11.17-45.727 32.393 6.531 54.726 541.128 45.797 16.33-131.8-1.09-116.161-57.7-13.404h-68.6z" fill="#DFE8F0"/><path d="M1218.37 177.725l-36.14 33.37-43.38 6.732-45.15 15.688-19.74 32.081-26.49 33.197-47.08 15.72-33.235 34.31-39.611.718-69.298 72.631 511.574 20.488-60.8-276.491-53.19-2.01-37.46 13.566z" fill="#DAE2EB"/><path d="M1205.58 234.311l-1.69 4.335v-3.684l-4.01-.651-1.9 6.285-.62 2.099-.44-1.664-10.99-4.337-3.8 6.505-6.34 7.802-8.87 4.335 2.29 7.775-3.35-.404-.42-3.253s-1.06-6.07-2.12-6.936c-1.05-.868-2.53 2.385-2.53 2.385l-.64 4.551.22 4.986-1.06 2.818-1.48-4.768-1.27-5.637s-3.59-3.251-4.22-3.034c-.64.216-1.9 3.9-1.9 3.9l-1.26 1.786c-.6-.702-1.05-1.135-1.28-1.135-.52 0-2.49 1.645-4.66 3.597l-.41-1.427-4.44-2.17-2.32.866-1.27 3.902-.42 4.553-2.33-1.734-3.8-3.467-3.38 6.285-.52 2.959-7.3-5.993-12.68 8.668-4.09 8.05-.34-1.762-.64-5.202-1.69-3.469s-4.01-1.083-4.65-1.083c-.63 0-1.69 2.818-1.69 2.818v2.385l-2.74-.868-2.12-5.637-3.59 1.517-2.96 2.17-.17 1.177-3.63-.962s-2.32 9.206-3.59 13.115l-16.49-7.299-5.07 12.193-.72-.461-3.53.303s-.89 2.114-1.18 3.021c-.3.907-2.66 1.813-2.66 1.813s-2.06-5.137-2.94-5.743c-.89-.604-3.54-.604-3.54-.604l-3.83 4.837-.32 2.479-4.9-3.58-10.47 10.973-1.4-3.224-4.41-3.627-2.95 4.233-.21 1.813-6.94-1.651-3.884 8.717c-.335-1.508-.46-3.439-.46-3.439l-2.356-6.951-3.536.604-.59 5.137-2.357 6.047-1.768-3.023-2.061-6.951-3.83 3.627-.635 3.24-.432-.396-15.423-2.938-4.869 10.934-.149-1.773-6.19-6.951-2.945 3.627-1.251 3.853-8.929-7.649-9.624 17.23-2.022 2.396c-.88-2.443-2.421-6.724-2.629-7.369-.295-.906-4.124 6.65-4.124 6.65l-.278 2.629-5.984-12.496-16.926 2.938-10.557 23.086-14.976-6.447-7.518 10.556-.921-.316-2.063-1.815-2.652-2.114-2.358 2.419-2.059 4.834-.591-3.023-2.358-3.324-4.419 2.115-2.063 5.139-3.241 2.72s-1.179-4.533-2.061-5.137c-.885-.606-4.716 2.72-4.716 2.72l-2.061 5.137-5.01 3.93-2.063-4.834h-5.008l-2.063 6.648-4.42 3.023-3.24-1.816-6.482 2.117 6.482 9.976 78.95-.711 25.33 2.691 170.42 4.975c3.07 17.375 5.27 30.496 4.93 30.754 1.88-.073 146.62 16.046 146.62 16.046l65.5-28.179s4.65-60.258 5.92-63.292c1.26-3.036-13.53-65.461-13.53-65.461s-18.59-12.139-20.28-12.139c-.81 0-4.31 2.769-7.76 5.66-.8-1.229-1.54-2.191-1.54-2.191l-3.17-5.419s-3.38-4.336-3.59-4.989c-.21-.648-2.11.653-2.11.653s-1.27 4.551-1.9 4.769c-.64.217-1.48-4.336-1.48-4.336l-1.27-6.069-2.54-4.984-2.32 3.249s-.63 6.505-1.06 7.587c-.42 1.084-1.26-3.467-1.26-4.118 0-.648-.85-5.419-.85-5.419s-5.28-3.467-7.4-1.734l-4.22-1.084-1.06-5.419-5.49-1.299-1.48 2.816-.42 6.938-1.9-1.517-.21-4.771-3.81-3.466-1.9 2.6-2.11 4.333-1.48-4.333-1.69-6.069s-3.81-.651-4.65-.651c-.85 0-.85 3.469-.85 3.469z" fill="#CBD5DF"/><path d="M1020.87 309.048l9.55-17.196 3.3-7.77 13.56 27.34-5.96-1.158 12.28 18.397-8.96-3.166 12.43 12.698-6.52 3.119 12.25 15.549-5.74.873 9.12 12.798-27.46 6.252-32.29-1.84-10.112-5.867 13.172-5.766-6.4-5.159 9.95-10.416-9-.994 14.13-15.886-1.1-4.331 6.79-8.755-6.27.879 8.82-11.084-5.54 1.483z" fill="#fff"/><path d="M984.667 319.852l-3.509 9.285-9.025 6.58 6.838 2.353-10.386 11.062-5.923 4.472 9.999 1.344-3.837 8.203-3.989 5.462-5.952 3.923 8.782 3.617 15.332.757 12.553-1.007 9.05-6.031-5.693-5.995 4.693-2.475 1.34-4.758-8.756-8.02-4.642-6.334 6.928 4 2.39-5.367-7.933-7.519-3.541-5.848-2.631-13.605-2.088 5.901z" fill="#fff"/><path d="M1066.2 370.532l-9.12-12.798 5.74-.873-12.25-15.549 6.52-3.119-12.43-12.696 8.96 3.164-12.28-18.397 5.96 1.161-13.56-27.343-.26.625 1.97 25.772-5.95 6.616 8.42 12.84-4.55 4.872 12.62 8.315-9.03 5.51-9.45 10.446 7.82 17.511 3.41.197 27.46-6.254z" fill="#DAE2EB"/><path d="M1086.25 320.362l-.38 5.293-9.69 13.05 4.36 1.007-6.91 13.247-6.14 4.698 8.73 1.199-4.35 6.321-6.92 7.956 6.96 6.292 15.27-.145s13.38-.128 13.1-.128c-.6.002 13.29-2.273 13.29-2.273l-5.18-8.536-5.18-7.721 5.36-.42-5.18-6.501-5.57-6.093 4.37.6-1.6-5.695-4.97-5.28 3.57-.008-8.96-11.581-2.8-9.56-1.18 4.278z" fill="#D3DBE4"/><path d="M1005.55 355.88l-8.761-8.019-4.642-6.335 6.928 4.001 2.385-5.368-7.927-7.519-3.542-5.847-2.483-12.842-3.097 17.443-3.529 5.949 1.982 5.679-5.582 5.21 1.926 9.562-7.689 8.003-2.238 9.641 14.321.708 12.553-1.007 9.055-6.031-5.698-5.997 4.688-2.475 1.35-4.756z" fill="#DAE2EB"/><path d="M1016.19 347.254l-7.4 11.713 5.75 7.151 8.87 5.078 2.46-15.144 15.16-13.005-18.05-1.161-4.55-6.601-7.35 8.713 5.11 3.256zM1021.27 331.019l11.7.004-2.09 2.261-9.61-2.265zM1027.51 307.55l5.68.264.48 2.125-3.82 2.942-2.34-5.331z" fill="#DFE8F0"/><path d="M983.84 339.553l7.52 3.469 2.666 6.044-10.186-9.513zM981.76 354.486l17.426 6.185-.953 6.778-7.612-5.376-1.745 2.385-7.116-9.972zM977.6 350.294l7.229-.074 7.239 2.583-14.468-2.509z" fill="#CBD5DF"/><path d="M1058.57 345.072l6.42-8.212 2.22-3.708 9.11 13.055-4.01-.555 8.26 8.784-6.03-1.511 8.36 6.064-4.38 1.489 8.23 7.424-3.86.416 6.13 6.111-18.45 2.986-21.71-.879-6.79-2.801 8.85-2.754-4.3-2.462 6.69-4.973-6.05-.476 9.5-7.584-.74-2.07 4.56-4.179-4.22.42 5.93-5.293-3.72.708z" fill="#fff"/><path d="M1034.45 348.769l-2.36 4.434-6.07 3.142 4.6 1.122-6.98 5.283-3.98 2.136 6.72.642-2.58 3.917-2.68 2.607-4 1.873 5.9 1.726 10.3.363 8.44-.48 6.08-2.88-3.82-2.864 3.15-1.182.9-2.272-5.88-3.829-3.12-3.023 4.65 1.909 1.6-2.562-5.32-3.591-2.38-2.793-1.77-6.494-1.4 2.816z" fill="#fff"/><path d="M1088.87 374.431l-6.13-6.111 3.86-.418-8.24-7.422 4.38-1.491-8.35-6.062 6.02 1.511-8.25-8.784 4 .553-9.11-13.055-.18.299 1.33 12.306-4 3.16 5.66 6.129-3.05 2.328 8.47 3.968-6.07 2.633-6.34 4.988 5.25 8.361 2.29.091 18.46-2.984z" fill="#DAE2EB"/><path d="M1104.22 350.128l-.25 2.528-6.52 6.23 2.94.482-4.65 6.325-4.13 2.243 5.87.572-2.92 3.018-4.66 3.798 4.68 3.006 10.27-.07s8.99-.062 8.8-.062c-.4.002 8.93-1.084 8.93-1.084l-3.48-4.075-3.48-3.689 3.6-.2-3.48-3.104-3.74-2.908 2.94.285-1.08-2.72-3.34-2.519 2.4-.005-6.02-5.53-1.88-4.563-.8 2.042z" fill="#CBD5DF"/><path d="M1047.73 365.974l-5.89-3.83-3.12-3.023 4.66 1.909 1.6-2.564-5.33-3.589-2.38-2.792-1.67-6.132-2.08 8.329-2.37 2.84 1.33 2.711-3.75 2.488 1.29 4.566-5.16 3.821-1.51 4.604 9.63.337 8.43-.48 6.09-2.88-3.83-2.863 3.15-1.182.91-2.27z" fill="#DAE2EB"/><path d="M1055.36 362.336l-4.97 5.594 3.86 3.413 5.97 2.426 1.65-7.233 10.19-6.21-12.14-.553-3.05-3.153-4.95 4.16 3.44 1.556zM1058.71 354.486l7.86.002-1.41 1.08-6.45-1.082zM1062.87 343.819l3.81.126.33 1.016-2.58 1.404-1.56-2.546z" fill="#DFE8F0"/><path d="M1033.75 358.754l5.06 1.658 1.79 2.884-6.85-4.542zM1031.67 365.154l11.71 2.953-.64 3.236-5.11-2.566-1.17 1.139-4.79-4.762zM1124.42 354.73l-.18 1.787-4.6 4.408 2.07.339-3.29 4.474-2.91 1.585 4.15.406-2.07 2.135-3.29 2.686 3.31 2.125 7.26-.049s6.36-.045 6.22-.045c-.28.003 6.32-.765 6.32-.765l-2.46-2.883-2.46-2.609 2.54-.141-2.46-2.195-2.64-2.057 2.07.203-.76-1.925-2.36-1.783 1.69-.002-4.25-3.911-1.33-3.228-.57 1.445z" fill="#CBD5DF"/><path d="M1029.59 363.057l4.86-.036 4.87 1.235-9.73-1.199z" fill="#DAE2EB"/><path d="M1132.77 352.249l4.54-5.808 1.57-2.622 6.44 9.232-2.83-.393 5.84 6.213-4.26-1.069 5.9 4.288-3.09 1.054 5.82 5.251-2.73.294 4.34 4.323-13.05 2.11-15.35-.621-4.81-1.98 6.26-1.948-3.04-1.743 4.73-3.516-4.28-.337 6.72-5.364-.53-1.463 3.23-2.955-2.98.297 4.19-3.743-2.63.5z" fill="#fff"/><path d="M1114.64 354.346l-1.67 3.136-4.29 2.221 3.25.796-4.94 3.736-2.81 1.508 4.75.455-1.82 2.771-1.9 1.843-2.83 1.325 4.18 1.221 7.28.256 5.97-.34 4.3-2.037-2.7-2.025 2.23-.836.64-1.604-4.17-2.71-2.2-2.138 3.29 1.351 1.13-1.814-3.77-2.539-1.68-1.973-1.25-4.595-.99 1.992z" fill="#fff"/><path d="M1154.04 373.012l-4.33-4.323 2.73-.294-5.83-5.251 3.1-1.054-5.9-4.286 4.25 1.067-5.83-6.213 2.83.393-6.44-9.232-.13.209.94 8.705-2.83 2.234 4 4.335-2.16 1.645 6 2.807-4.3 1.863-4.48 3.527 3.71 5.914 1.62.066 13.05-2.112zM1123.78 366.513l-4.16-2.709-2.21-2.138 3.29 1.351 1.14-1.814-3.77-2.537-1.69-1.975-1.18-4.337-1.47 5.89-1.68 2.01.95 1.918-2.66 1.758.92 3.23-3.66 2.701-1.06 3.258 6.81.239 5.96-.342 4.31-2.035-2.71-2.025 2.23-.836.64-1.607z" fill="#DAE2EB"/><path d="M1135.66 352.354l2.69.089.23.717-1.82.994-1.1-1.8z" fill="#DFE8F0"/><path d="M1114.86 360.887l3.57 1.171 1.27 2.042-4.84-3.213z" fill="#E9EFF5"/><path d="M1112.78 367.287l8.28 2.089-.45 2.289-3.62-1.816-.83.805-3.38-3.367z" fill="#CBD5DF"/><path d="M1115.54 107.421l-8.77 4.489-12.42 2.587-3.49 1.373-.59-3.142 2.28-3.676-3.8-.473-11.74 4.305-5.26 4.381-5.78 1.446-7.21 6.119.16 4.513-8.41 2.912-7.37-.014-6.39 6.58-11.5 2.29-10.3 8.497.78 1.326 1.7 2.93v.011l3.73-.439.01.002 13.3-5.719 5.14 2.445.01.001-2.61 2.895-.01-.002v.011l5.29-.235 10.9-6.202 6.4.797-3.11 2.659-.01-.002v.01l7.63 2.211 5.02-2.431 4.05 1.396-3.04 6.462v.002l1.02-.114 4.48-.464 5.73-3.964 6.35 1.149.59 2.498 10.71-4.509 11.76 1.465 4.93-1.726.01-.01 2.87-5.039 6.16-3.191v-.011l4.44-4.833-7.22-2.694-5.53.748v-.01l.32-2.278.01-.042.79-5.624 4.61-1.95 7.27-.714-.56 4.791 6.51-.093 4.81.785 7.66-9.85 3.53-2.345 1.03-.687 5.67.705 1.15-9.734-12.56 2.734-4.14 3.804-3.04-.911.52-4.439-10.7 2.987-5.33 3.481-6.88-2.662 1.89-5.519-3.45-2.049zM166.513 138.034l-5.529.747-.009-.002.333-2.275.005-.043-5.509 1.664-2.602-3.205-5.487 1.841-5.928 2.688-2.421-6.25-6.886 1.11-5.582 3.462-2.53-5.34-8.733 4.102 3.646 1.899-6.817 7.07-9.153-1.138-17.747 1.764-2.936-.367-9.302 2.977-9.802 4.349-3.239-.403 1.7 2.93 3.728-.427.012.001 13.294-5.732 5.161 2.448v.012l-.012-.002-2.61 2.895.01.002 5.267-.238 10.911-6.191.011-.009 6.395.795-.001.011-.011-.002-3.114 2.659.012.002 7.617 2.209 5.027-2.432 4.043 1.407-3.033 6.464 1.011-.113 4.487-.475 5.728-3.964 6.353 1.148-.001.012.585 2.498 10.713-4.519 11.755 1.463 4.933-1.715.012-.01 2.865-5.038.001-.011 6.168-3.192 4.43-4.834.011-.008-7.23-2.694z" fill="#F0F5FA"/><path d="M1237.94 102.517l-5.53.748-.01-.003.33-2.274.01-.043-5.51 1.664-2.6-3.206-5.49 1.841-5.93 2.689-2.42-6.25-6.88 1.11-5.59 3.462-2.53-5.34-8.73 4.101 3.65 1.9-6.82 7.07-9.15-1.139-17.75 1.764-2.94-.367-9.3 2.977-9.8 4.35-3.24-.404 1.7 2.931 3.73-.428.01.001 13.29-5.731 5.17 2.448-.01.011-.01-.002-2.61 2.895.01.002 5.27-.237 10.91-6.191.01-.01 6.4.796v.01l-.01-.002-3.12 2.66.01.002 7.62 2.208 5.03-2.431 4.04 1.407-3.03 6.464 1.01-.114 4.49-.475 5.72-3.964 6.36 1.148v.012l.58 2.499 10.71-4.52 11.76 1.463 4.93-1.715.01-.009 2.87-5.038v-.012l6.17-3.192 4.43-4.833.01-.009-7.23-2.694z" fill="#F0F5FA"/><path d="M297.304 194.578a4.906 4.906 0 00-.274.076l-.283.087a6.679 6.679 0 01-.127.039l-.051.016-.053.017-.091.029-.095.03-.04.013.035.02-.037-.02-.049.016-.01.003-.242.078.027.015a.269.269 0 01-.022.014c.009-.007.012-.015-.008-.028l-.188.06-.113.037-.075.025-.378.124-.128.042-.06.02-.237.08a1.355 1.355 0 00-.068.023l-.028.009a7.184 7.184 0 00-.079.027l-.216.076-.06.021a6.276 6.276 0 01-.525.175l-.059.017c-.097.027-.199.054-.303.08l-.093.023a1.27 1.27 0 01-.012.069c-.02-.015-.037-.008-.055-.002l.053-.019.011-.047-.208.05a18.6 18.6 0 01-.376.083c-.204.041-.338.059-.32.036a.882.882 0 01.197-.112l.066-.031.026-.013a36.609 36.609 0 00.289-.133c.329-.15.756-.343 1.166-.553a26.901 26.901 0 00.761-.411 2.541 2.541 0 01-.044-.097c.016.037.031.069.059.089l.174-.102c.143-.084.279-.166.407-.247l.044-.029.103-.065.046-.031.017-.011.186-.125.004-.003.084-.059a12.574 12.574 0 00.376-.277c.072-.056.14-.111.204-.164l.014-.012.128-.109-.01-.006.01.005.043-.038.029-.026.092-.085c.144-.136.26-.26.355-.372.118-.141.202-.263.26-.363.113-.197.125-.31.103-.32-.013-.005-.083.022-.189.072l-.066.032c-.508.247-1.616.862-1.958 1.084a8.094 8.094 0 01-.434.249l-.334.181-.289.155-.047.025-.058.031-.026.014-.017.009-.285.15-.124.066-.04.021-.797.417-.023.012-.082.043-.096.05a335.422 335.422 0 00-.713.368l-.081.041a3.624 3.624 0 01-.277.138l.059-.035a.17.17 0 01.014-.009l.16-.097.187-.115c.169-.105.331-.209.488-.313l.06-.04.127-.085.006-.004.079-.054c.207-.142.404-.282.59-.42l.048-.036.08-.06c.438-.331.815-.649 1.142-.95l.005-.005c.172-.159.332-.314.476-.463l.033-.034.073-.076c.161-.17.303-.331.43-.483l-.005-.02.005.02.065-.078.08-.1a.027.027 0 01.005-.006l.053-.069c.037-.047.072-.094.105-.139l.034-.047a4.923 4.923 0 00.16-.229l.016-.025.04-.061c.239-.373.336-.614.354-.673.058-.196-.059-.181-.118-.151-.028.015-.449.355-.919.738l-.046.038-.033.027-.05.04c-.451.369-.918.753-1.108.914a4.982 4.982 0 01-.214.164c-.169.125-.41.299-.689.497l-.221.156-.054.038-.125.088-.115.081a6.794 6.794 0 00-.134.094l-.296.207-.17.118-.116.081-.044.031-.204.142-.118.082-.019.013-.07.049-.436.301a1.699 1.699 0 01-.053.037l-.077.053-.131.09-.104.072-.022.015a17.03 17.03 0 01-.397.27c.125-.098.247-.195.366-.292l.092-.076.12-.099c.079-.066.156-.131.231-.196l.064-.055.026-.023c.112-.097.221-.194.326-.289l.045-.041.046-.042.194-.182c2.086-1.976 2.72-3.517 2.91-4.205l.03-.12.017-.075c.028-.13.033-.199.033-.199s-.032-.08-.107-.081c-.042 0-.096.024-.166.098a.811.811 0 00-.05.058c-.034.044-.11.151-.222.308a1.439 1.439 0 01-.039.055l-.003.004-.05.07-.058.081a31.315 31.315 0 01-.278.379c.023.016.047.036.075.041-.027-.005-.051-.024-.076-.04l-.1.134a.164.164 0 01-.041.121.155.155 0 00.04-.119l-.069.091a32.402 32.402 0 01-1.318 1.631l-.023.027-.042.049-.001.001a26.584 26.584 0 01-1.842 1.921l-.05.047c-.397.37-.816.734-1.253 1.078.341-.32.746-.825 1.145-1.379l.037-.051c.484-.674.957-1.413 1.296-1.975l.116-.194.135-.229.064-.113.049-.087c.036-.066.067-.122.09-.167.05-.099.097-.216.14-.343a6.48 6.48 0 00.188-.723c.093-.455.141-.867.141-.949 0-.15-.088-.225-.176-.15-.026.022-.239.447-.585 1.094l-.018.033c-.079.148-.166.308-.258.476l-.145.263-.122.217c-.073.131-.15.265-.229.403l.122-.059-.122.059-.138.238a16.59 16.59 0 00-.104.176l-.05.085-.061.102-.025.042a27.911 27.911 0 01-1.762 2.622 15.21 15.21 0 01-.267.337l-.077.094c-.256.309-.516.598-.777.855.153-.199.491-.741.858-1.362l.06-.103a41.77 41.77 0 00.945-1.692l.014-.029c.095-.183.175-.345.232-.473l.021-.047a.546.546 0 00-.04.005h.001a.413.413 0 01.039-.005l.04-.098a2.774 2.774 0 00.104-.338 4.156 4.156 0 00.138-1.007.687.687 0 00-.007-.102c-.009-.058-.027-.074-.054-.032l-.006.01-.02.038a3.264 3.264 0 00-.049.089l-.097.177a106.416 106.416 0 01-.801 1.437l-.08.139-.035.061.053.031-.002.003c.006.023.017.043.023.065-.005-.021-.016-.041-.025-.062l.002-.003a.754.754 0 00-.051-.033l-.031.053c.023.013.045.02.07-.004-.025.026-.047.018-.071.005a51.362 51.362 0 01-.87 1.458c-.524.845-1.079 1.676-1.59 2.307l-.092.114a8.632 8.632 0 01-.303.343l-.01.011-.084.088a4.68 4.68 0 01-.135.129c-.112.103-.254.225-.42.363-.675.56-1.738 1.368-2.752 2.132l-.107.08-.149.113-.269.202c-.37.279-.723.544-1.035.781l-.216.165-.122.093a.055.055 0 01-.008.006l-.078.06-.058.045c-.182.141-.337.262-.456.36l-.079.065c-.107.09-.175.153-.192.181a1.434 1.434 0 01-.086.173l-.026.046c-.167.285-.481.736-.886 1.282l-.166.222c-.188.25-.393.516-.609.793l-.033.042-.097.123a1.3 1.3 0 01-.046.058l-.105.134-.019.023-.18.226-.086.109-.003.003-.065.081c-.099.123-.198.246-.299.369l-.084.103-.061.074-.09.111-.12.146-.036.042a2.963 2.963 0 01-.101.123l-.028.033-.039.048-.046.055-.009.01-.261.312-.077.09-.335.393a27.41 27.41 0 01-.225.26 46.625 46.625 0 01-.921 1.031l-.054.059a21.094 21.094 0 01-.305.325l-.001.075a.48.48 0 00-.004-.07l-.081.084-.073.076c-.144.148-.28.284-.409.408l-.13.124a.942.942 0 01-.18.128l.014.022-.014-.022-.056.032-.007.003c-.048.027-.1.054-.156.081a7.672 7.672 0 01-.234.109l-.026.011a8.252 8.252 0 01-.158.069l-.106.045-.122.052-.001.001-.153.064a23.878 23.878 0 00-.425.188 2.354 2.354 0 00-.395.22l-.039-.014c-.028-.009-.057-.019-.087-.027a1.836 1.836 0 00-.314-.052l-.072-.005-.059-.003a3.336 3.336 0 00-.245 0h-.007l-.09.005a26.57 26.57 0 00-.062.003c-.076.006-.153.012-.229.02l-.188.022-.031.004a3.157 3.157 0 00-.096.013l-.131.018-.059.008a.492.492 0 01-.007.033l-.008.004a.267.267 0 00-.032.108c.002-.036.014-.071.023-.106l.009-.002.01-.036-.255.036-.043.006-.162.019a1.762 1.762 0 01-.321.011 1.226 1.226 0 00-.136-.009l-.021-.002h-.058a2.624 2.624 0 00-.322.018l-.097.012a6.715 6.715 0 00-.14.019l-.259.041-.152.025-.203.031-.042.006-.021.004c-.086.013-.17.038-.25.07a1.923 1.923 0 00-.213.105c.02.057.046.119.157.136a.2.2 0 00.01.007l-.152.101c.08-.054.125-.083.142-.108a.315.315 0 00-.101.021 8.078 8.078 0 01-.056-.157c-.253.145-.431.323-.431.323s-.039-.011-.104-.013h-.005a.866.866 0 00-.352.067c-.02.009-.042.018-.063.029a.534.534 0 00-.146.094.661.661 0 00-.182.303.913.913 0 00-.027.106l-.001.002.001.001a1.325 1.325 0 00-.013.067c-.01.075-.015.152-.015.228v.055c.011-.015.018-.028.025-.04a.982.982 0 01-.025.044l.003.067.015.009a.069.069 0 00-.015-.007c.004.069.011.135.019.197l.001.013a2.977 2.977 0 00.041.234l.027.113.103-.079.061-.046a3.96 3.96 0 01.159-.115.614.614 0 00-.086.002l-.001-.001v-.002l.087.001a2.17 2.17 0 01.075-.049c.008-.005.02-.008.029-.012.151-.059.454.022.622.045.075.011.161.071.253.15.029.024.059.05.089.078l.037.034.037.034.062.057a3.23 3.23 0 00.188.156 4.432 4.432 0 00-.477.035l-.198.021a12.278 12.278 0 01-.39.036h-.065c-.055.002-.087.01-.221.039l-.012.003-.189.041a7.456 7.456 0 00-.436.11c-.327.091-.755.218-1.175.336l-.126.036-.009.002a.569.569 0 01-.039.011l-.113.031-.118.032c-.136.036-.268.07-.391.099a28.03 28.03 0 01-1.655.305l-.07.011-.42.069-.101.017c-.28.046-.483.081-.533.098-.162.056-.721.185-1.1.445-.337.23-2.096 1.175-2.84 1.617l-.139.085-.089.056c-.505.333-1.376.714-1.949.704-.927-.017-1.562-.446-1.985-.873a4.82 4.82 0 01-.228-.252 4.897 4.897 0 01-.175-.224l-.07-.097-.054-.078a1.633 1.633 0 01-.046-.065.566.566 0 01-.036.016l.017.08-.017-.08.036-.016a1.915 1.915 0 00-.087-.116c-.029-.033-.049-.047-.062-.035a1.052 1.052 0 00-.256.345.872.872 0 00-.069.248c-.01.07-.012.141-.007.213.014.205.083.413.19.61.17.312.434.597.726.794.74.499 1.437.085 2.43-.044.992-.13-.722.777-1.173.833-.451.055.144.092.577.074.433-.019 2.021-.833 2.039-.685.018.148-.162.434-.487.674-.325.241-.872.634-.585.569.416-.095 1.217-.188 1.758-.429.542-.24.469-.5.65-.481.031.003.044.044.047.111a.766.766 0 01-.002.081 5.017 5.017 0 01-.09.564c.041-.006.081-.012.117-.02l-.004-.002.13-.228c-.044.078-.087.153-.126.23l.002.003-.119.017-.054.274-.019.101a2.687 2.687 0 00-.03.197c-.008.066-.008.114.003.134.025.044.107.007.219-.063.076-.048.165-.111.261-.177l.129-.087c.135-.088.273-.169.398-.212.013-.004.027-.01.04-.013a.951.951 0 00.057-.019c.204-.076.32-.224.404-.333l.048-.062c.036-.044.067-.074.099-.074.075 0 .008.001.004.094a.339.339 0 00.027.128.85.85 0 00.09.169.455.455 0 00.064.079.208.208 0 00.146.063c.099 0 .192-.071.274-.11a.201.201 0 01.086-.026.878.878 0 00.106-.009c.078-.01.18-.027.291-.049.091-.018.187-.039.278-.06l.08-.019c.1-.025.189-.05.255-.072.215-.074.421.024.706.054.05.005.101.009.156.009.266 0 .365-.121.425-.188l.011-.013-.076-.045a.18.18 0 00.09.032.059.059 0 01.021-.016l.007-.002a.019.019 0 01.007-.002c.022 0 .085.008.173.02a.821.821 0 00-.055-.048c.022.017.043.036.071.05l.089.012.044.006.084.012.008.001.069.01.124.018.053.007.067.01.078.011.087.012c.371.052.354-.19.64-.276a.838.838 0 01.263-.034l.068.002.05.002a1.82 1.82 0 00.681-.095c.177-.06.157-.105.126-.138-.02-.02-.043-.036-.026-.048a.67.67 0 01.136-.048c.121-.034.296-.074.436-.107a.325.325 0 00.037-.011.287.287 0 00.108-.062.403.403 0 00.081-.107c.025-.045.045-.087.077-.114.037-.03.113-.005.211.034a.708.708 0 01.052.021c.122.049.268.109.411.118h.026c.122.001.162-.048.197-.106l-.174-.051a.364.364 0 01.01-.044l.002.01.018-.009a.46.46 0 00.146.091c.018-.031.036-.064.065-.094a.267.267 0 01.121-.07l.01-.004.015-.003a.567.567 0 01.066-.011.386.386 0 01.102.002c.111.015.215.068.349.125.055.024.116.047.184.069l.025.008c.031.01.059.015.085.018l.007.001a.31.31 0 00.075-.001.234.234 0 00.099-.036.311.311 0 00.096-.099c.019-.03.033-.058.046-.081a.13.13 0 01.029-.043c.023-.016.075-.017.152-.011l.111.011.096.011.109.013.088.01c.312.034.177-.064.451-.101l.021-.002a.766.766 0 01.331.04c.108.036.213.08.376.08.303 0 .32-.207.505-.224a.275.275 0 01.101.003c.046.012.053.041.162.058.02.003.044.006.074.008.252.017.202-.173.353-.156.079.009.126.046.185.079a.451.451 0 00.354.044.269.269 0 00.092-.054c.027-.024.049-.053.073-.083a.491.491 0 01.088-.089.207.207 0 01.105-.036.754.754 0 01.117-.001 2.173 2.173 0 01.224.03l.054.01.004.001c.059.01.104.018.119.013.018-.006.03-.02.042-.04.021-.033.043-.085.103-.15.021-.022.056-.032.101-.035.082-.004.199.017.337.042.075.013.156.027.24.038l.038.004.039.005.103.008.035.002c.02.018.042.035.065.053l.056.04.015.01a2.385 2.385 0 00.254.15l.066-.01c-.021.003-.043.006-.064.011.109.055.227.109.35.16l.084.035.081.031a9.372 9.372 0 00.486.172l.094.031.32.1.059.016c.153.039.359.07.594.1l.033.005.052.006.414.05.132.016a.377.377 0 00.031.004l.052.007.072.009a12.205 12.205 0 01.675.108l.079.017a3.33 3.33 0 01.545.159c.028.011.056.023.082.036a.092.092 0 00.021-.031.611.611 0 00.041.01c.046.048.075.065.132.099l-.124-.074c-.008.008-.016.013-.023.018.058.028.109.053.156.074l.07.03a.905.905 0 00.261.074l.035.001c.09-.001.145-.038.218-.081l.005-.002a.795.795 0 01.236-.093l.005-.002a1.41 1.41 0 01.357-.039h.009c.077.001.144.01.21.023.022.004.044.01.065.015.041.01.081.022.123.034l.165.05c.089.025.247.108.424.212.256.151.552.345.747.475.126.084.209.142.209.142s.246.108.475.255c.011.007.022.013.032.021.114.074.219.158.285.242a.54.54 0 00.169.16c.015.007.03.013.047.018.035.01.075.016.124.02.045.003.098.005.161.007l.108.005h.016l.093.006.107.008c.372.033.395-.072.4-.14.002-.04-.001-.067.054-.047.02.007.041.015.065.022l.014.005c.164.051.417.103.645-.027.2-.114.039-.079.335-.039l.104.011c.031.003.065.007.103.009l.153.01.028.001.041.002.016.001.062.002c.494.018.569-.06.568-.149a.383.383 0 00-.008-.068c-.011-.063-.017-.121.097-.145.32-.069.219-.104.354-.311.07-.108.168-.104.31-.104a1.258 1.258 0 00.373-.05c.037-.011.076-.026.117-.043l.021-.009.004-.002a.566.566 0 00.22-.18c.173-.25.094-.632-.005-.937l-.013-.04-.003-.008c-.044-.134-.036-.197.003-.226.075-.055.263.008.437-.059.242-.093.118-.242.041-.321l-.024-.025c-.015-.016-.131-.053-.313-.103l-.027-.008-.058-.016a4.649 4.649 0 00-.081-.021l-.022-.006-.121-.032-.049-.012-.029-.008-.26-.065-.086-.021-.373-.09-.053-.012a28.563 28.563 0 00-.462-.108l-.207-.046-.191-.043-.051-.011-.034-.008a1.955 1.955 0 01-.074-.016l-.108-.023-.034-.007-.017-.004-.067-.014a1.685 1.685 0 00-.061-.013l-.145-.031-.074-.015-.113-.023-.022-.004a4.666 4.666 0 01-.965-.318 7.651 7.651 0 01-1.056-.581c-.111-.072-.196-.132-.249-.169l-.053-.037-.017-.015c-.068-.057-.062-.127-.118-.227a.548.548 0 00-.033-.052c-.04-.054-.103-.135-.161-.22l-.027-.039a.973.973 0 01-.037-.06.67.67 0 01-.076-.16.178.178 0 01-.008-.048l-.031-.018-.001-.005c-.03-.022-.057-.038-.088-.057l.086.052.052-.093c-.017.031-.035.062-.05.098l.032.021a.09.09 0 01.006-.041l.026-.07c.017-.047.034-.103.049-.165.027-.115.044-.247.026-.369-.002-.01-.002-.018-.002-.027a.195.195 0 01.017-.088.25.25 0 01.056-.075.779.779 0 01.172-.114c.068-.037.141-.072.205-.114l.023-.014.017-.013a.374.374 0 00.078-.071.184.184 0 00.035-.066.461.461 0 00.011-.112c.002-.033.004-.071.01-.115l.014-.072a.282.282 0 00.007-.047c.01-.13-.079-.185-.149-.211-.043-.015-.078-.02-.078-.024 0-.003.045-.026.108-.056l.188-.088.077-.035.085-.039s.028-.085.058-.165l.032-.082c.01-.022.018-.04.024-.048.007-.01.037-.021.08-.031l.062-.014.154-.031a1.274 1.274 0 00.159-.041.22.22 0 00.043-.02l.007-.007a.417.417 0 00.09-.166c.015-.042.03-.087.044-.133l.028-.09.004-.013c.015-.047.031-.093.047-.133a.204.204 0 01.028-.049.143.143 0 01.076-.05c.051-.013.11-.005.171.001a.435.435 0 00.125-.002.14.14 0 00.072-.041.494.494 0 00.1-.158c.05-.112.094-.259.142-.418l.019-.065.005-.016a.403.403 0 01.052-.108c.059-.081.136-.076.227-.07l.054.003a.487.487 0 00.118-.01c.016-.034.034-.065.069-.08-.034.015-.053.046-.069.079a.314.314 0 00.093-.035.265.265 0 00.103-.099.475.475 0 00.05-.109l.006-.018c.022-.071.039-.152.058-.239l.022-.09c.013-.056.03-.114.05-.173l.01-.029.015-.036c.022-.055.049-.109.081-.164l.023-.039a.382.382 0 01.102-.114c.084-.056.15 0 .279-.066a.233.233 0 00.078-.076.603.603 0 00.051-.092l.021-.05c.013-.031.025-.063.036-.097.064-.189.115-.415.181-.557l.002-.004a.23.23 0 01.066-.086.212.212 0 01.066-.036c.06-.02.128-.019.197-.019a.942.942 0 00.12-.008.267.267 0 00.135-.058c.012-.01.022-.023.032-.035a.707.707 0 00.138-.283l.029-.103a.982.982 0 01.08-.225c.031-.06.065-.083.1-.091.077-.018.163.032.249-.056l.017-.019c.074-.093.134-.199.185-.291l.04-.07a.838.838 0 01.068-.105.155.155 0 01.043-.032.376.376 0 01.053-.025 2.58 2.58 0 01.12-.043l.054-.019a1.719 1.719 0 00.201-.088.703.703 0 00.174-.139c.011-.013.019-.028.029-.042a.818.818 0 00.12-.302c.016-.076.026-.155.033-.232l.007-.084c.005-.07.009-.137.016-.197a.23.23 0 01.044-.109c.098-.114.327-.058.411-.131.033-.03.049-.083.059-.147a2.89 2.89 0 00.009-.061l.006-.054c.011-.109.022-.229.072-.325a.423.423 0 01.112-.126l.045-.034.098-.066.117-.076a1.15 1.15 0 00.214-.178.511.511 0 00.051-.064l.008-.012a.218.218 0 00.041-.135c-.004-.064-.045-.111-.076-.162-.039-.064-.063-.132.021-.245.14-.188.279-.123.454-.201a.596.596 0 00.203-.158c.007-.008.012-.017.018-.025.238-.319-.129-.836.014-.909.146-.075.469-.255.615-.331.1-.051.037-.172.019-.281a.203.203 0 01.001-.092.12.12 0 01.024-.048c.041-.048.113-.074.188-.11.04-.019.08-.04.118-.068l.015-.01a.403.403 0 00.136-.205l.011-.039.001-.004c.03-.136.186-.211.382-.27l.013-.004.066-.018c.101-.027.209-.052.314-.08l.051-.013a1.99 1.99 0 00.264-.089l.027-.013a.828.828 0 00.114-.065c.217-.156.2-.321.19-.47-.007-.094-.011-.181.045-.256l.008-.01c.065-.082.186-.177.302-.295l.052-.055.051-.059.001-.001a1.263 1.263 0 00.107-.162.67.67 0 00.08-.365.199.199 0 01.029-.119c.072-.118.262-.188.43-.267a.452.452 0 00.114-.078.617.617 0 00.101-.115l.006-.009c.021-.03.04-.062.058-.094l.027-.05.073-.143.041-.073c.066-.105-.066-.229-.135-.344a.261.261 0 01-.038-.092.11.11 0 01.008-.062.154.154 0 01.019-.028l.008-.008.038-.038a5.54 5.54 0 01.165-.138l.054-.044.042-.034.163-.128.101-.08c.258-.204.52-.416.601-.522.162-.211-.073-.121-.469-.091-.395.031-.351-.06-.293-.135.02-.025.263-.18.588-.381l.034-.021a27.311 27.311 0 01.428-.263l.036-.022.081-.049.05-.031c.539-.328 1.075-.649 1.173-.707.205-.12-.015-.18-.25-.135z" fill="#D3DBE4"/></g></svg>