<svg width="82" height="72" xmlns="http://www.w3.org/2000/svg" xmlns:xlink="http://www.w3.org/1999/xlink"><defs><path d="M52.615 10.247c-1.46-2.32-3.101-2.42-5.271-3.906.303-.58.527-1.39.449-2.678-.06-.996-1.78-2.884-2.097-3.06-.731 1.111-1.847 2.936-2.498 3.545-2.805 2.622-4.833 2.89-9.605 2.767-4.771-.123-7.742-.44-11.562-1.968-.833-.334-2.866-1.225-4.027-1.705-1.89-.781-3.713-1.842-4.672-2.7-.364.172-1.287 1.324-1.134 2.44.173 1.268 1.43 2.527 1.004 2.897a27.958 27.958 0 00-6.468 8.241 28.968 28.968 0 00-3.115 10.52c-.193 1.928.288 9.897.317 13.063.03 3.165-.108 7.16-.577 9.962-1.125 6.73-4.85 13.774-2.21 16.196 1.859 1.705 3.995 2.195 9.123 2.195 1.737 0 9.773-.184 17.314-1.05 4.578-.526 9.279-1.732 12.096-2.8 6.247-2.37 12.373-7.373 16.162-17.955.733-2.047 1.418-5.72 1.34-9.465-.126-6.126-1.54-12.903-2.542-16.482-.913-3.493-1.54-7.285-2.027-8.057z" id="a"/></defs><g fill="none" fill-rule="evenodd"><path d="M21.023 43.406c7.669 3.721.236 11.13-3.1 15.094-.601.713-.783 4.48-1.821 7.464-.729 2.095-1.71 3.344-3.893 3.805-4.9 1.035-6.695.408-9.53-.797C.29 67.956-.208 65.964.312 64.592c1.286-3.39 5.116-10.58 7.058-17.282 1.942-6.702 11.089-5.148 13.653-3.904z" fill="#A9DDFF"/><g transform="translate(3.552 1.847)"><mask id="b" fill="#fff"><use xlink:href="#a"/></mask><use fill="#38AFFF" xlink:href="#a"/><path d="M55.865 44.154c-3.871 8.81-11.716 14.276-23.533 16.397-17.727 3.183-20.697 1.287-25.165 0-4.467-1.286-17.7-7.604-12.347 1.287 3.57 5.927 16.073 9.363 37.512 10.309l30.542-17.24-7.009-10.753z" fill="#008AE6" mask="url(#b)"/><path d="M7.372 61.97c5.1-2.318 8.715-5.598 10.845-9.839 2.13-4.241 1.065-9.719-3.195-16.433L4.748 57.993l2.624 3.977z" fill="#008AE6" mask="url(#b)"/></g><path d="M20.27 33.316c8.195 2.326 7.154 9.907 4.553 14.394-.796 1.373-3.24 6.064-8.258 10.022-5.019 3.958-7.92 4.403-10.818 4.067-2.554-.295-3.214-1.315-2.56-2.442 3.598-6.205 3.558-12.875 4.312-19.814.755-6.938 10.031-7.005 12.771-6.227zM42.196 15.684c-4.705-1.915-8.803-3.272-11.855-2.983-2.068.196-3.664.94-5.122 1.787-.757.44-3.494.144-5.951-1.787 1.32 3.302 3.374 3.718 3.836 3.913-1.936.658-2.645-.075-4.475-.553.639 2.607 1.958 3.01 3.096 3.31-2.022 6.135 1.317 14.006 9.91 16.433 3.044.86 10.842 1.123 11.077 2.058.468-1.14 7.36-3.048 10.388-5.186 5.733-4.05 4.631-12.202 1.51-17.626.314-1.098.33-1.841 0-2.349-.438.918-1.078.397-1.65.438.289-.344.111-.803 0-2.2-.572.652-1.075 1.125-1.355 1.039-2.717-.834-5.161-.42-8.334 2.51-.466.43-.824.83-1.075 1.196z" fill="#A9DDFF"/><path d="M16.24 15.102c.654 1.379.704 3.444.113 5.655-.886 3.32-2.588 4.46-4.112 4.24.016.066.032.132.05.199 1.431 5.531 6.89 9.841 16.314 11.284h1.55v.974l-1.623-.006c-10.047-1.534-15.668-5.78-17.197-11.788a3.798 3.798 0 00-.462-1.069c-1.968-.757-3.132-3.24-2.605-5.65l.514-2.354c.203-.927.628-1.719 1.19-2.315l-.225-.04c6.944-6.926 18.495-11.898 27.47-10.307 3.384.6 6.376 1.848 8.414 3.192-1.478.617-.63.567-2.237 1.172-1.64-.953-3.715-1.729-6.36-2.197-6.654-1.18-13.37.858-16.721 3.537-2.094 1.673-4.178 3.617-4.073 5.473z" fill="#FF7F90" fill-rule="nonzero"/><path d="M27.622 36.268c.064-.56.431-.978.908-1.031l2.368-.266c.381-.043.77.155 1.025.524l.568.818c.453.652.332 1.585-.254 1.953l-.783.492a.942.942 0 01-.928.039l-2.152-1.045c-.506-.245-.821-.868-.752-1.484zM10.304 23.788c-1.605-.666-3.25-2.66-1.955-6.76 1.295-4.102 3.85-4.86 5.287-4.214 1.437.646 2.11 2.986 1.155 6.192-.955 3.207-2.882 5.448-4.487 4.782z" fill="#FA3E6D"/><path d="M31.871 25.793c1.782 0 4.227-.208 5.452-1.062.727-.507.809-2.03.809-3.455 0-3.172-2.624-5.744-5.86-5.744s-5.86 2.572-5.86 5.744c0 3.173 2.223 4.517 5.459 4.517zM51.212 23.972c2.942-.435 3.716-1.444 3.544-4.563-.172-3.12-2.147-4.802-5.127-4.802s-4.445 2.375-4.445 5.297c0 1.314.07 2.537.975 3.458 1.107 1.127 2.916.927 5.053.61z" fill="#FFF"/><path d="M35.465 16.82c-.501.265-.846.82-.846 1.464 0 .898.674 1.627 1.506 1.627.661 0 1.223-.461 1.425-1.102.215.49.335 1.04.335 1.618 0 2.095-1.571 3.793-3.509 3.793s-3.509-1.698-3.509-3.793 1.571-3.793 3.509-3.793c.38 0 .746.065 1.089.186zM52.65 15.72c-.4.254-.672.739-.672 1.296 0 .82.587 1.484 1.311 1.484.492 0 .92-.307 1.145-.76.108.345.166.716.166 1.102 0 1.829-1.31 3.311-2.924 3.311-1.615 0-2.924-1.482-2.924-3.31 0-1.829 1.309-3.311 2.924-3.311.341 0 .67.066.974.188z" fill="#333"/><path d="M43.519 49.89c1.306-1.176 1.96-2.49 1.96-3.94 0-1.45-.654-2.762-1.96-3.938-1.306 1.176-1.96 2.489-1.96 3.939 0 1.45.654 2.763 1.96 3.938z" fill="#A9DDFF"/><path d="M43.7 28.599c1.152-1.528 2.159-3.217 1.816-5.334-.06-.368-.208-.652-.447-.853-.136.199-.487.368-1.05.508-.565.14-1.44.21-2.624.209.434.509.764.999.99 1.47.821 1.705 1.05 2.622 1.315 4z" fill="#008AE6"/><path d="M39.521 53.433c.907-1.508 1.15-2.956.728-4.343-.422-1.386-1.428-2.45-3.02-3.19-.907 1.508-1.15 2.955-.728 4.342.422 1.387 1.429 2.45 3.02 3.19zM47.083 53.614c1.368-.757 2.197-1.766 2.486-3.025.29-1.258-.016-2.53-.916-3.813-1.368.757-2.197 1.765-2.486 3.024-.29 1.259.016 2.53.916 3.814z" fill="#A9DDFF"/><path d="M32.858 28.347c1.638.173 2.14.064 2.5-.393.361-.457.875-1.426-.63-1.357-1.673.076-3.333.007-4.237.203-.39.084-.643.196-.657.332-.047.45 1.387 1.042 3.024 1.215zM51.016 26.382c-1.605.372-2.116.325-2.53-.084-.413-.41-1.04-1.308.462-1.424 1.67-.13 3.309-.402 4.23-.318.398.036.662.116.693.25.1.44-1.25 1.203-2.855 1.576z" fill="#38AFFF"/><path d="M36.822 63.84c-.3 1.451 1.895 4.265 2.468 5.575.458 1.048-1.464 1.009-2.208.391-.744-.617-1.994-1.848-4.278-4.856 3.004-2.309 4.343-2.679 4.018-1.11zM27.702 65.796c-.3 1.45 1.635 2.309 2.208 3.619.458 1.048-1.464 1.009-2.208.391-.745-.617-1.994-1.848-4.278-4.856 3.177-1.005 4.603-.723 4.278.846z" fill="#008AE6"/><path d="M34.536 71.303c-.004-.12.967-1.122-.014-1.829-.631-.455-2.888-.775-4.022-.703-2.895.182-4.583.819-5.722 1.306-.76.324-.82.73-.182 1.217 6.631.139 9.945.142 9.94.01z" fill="#008AE6"/><path d="M42.893 71.008c0-.127 1.106-1.523.122-2.271-.56-.427-2.813-.43-3.794-.401-2.698.08-4.289.657-5.363 1.104-.717.297-.786.7-.208 1.21 6.162.372 9.243.491 9.243.358z" fill="#008AE6"/><path d="M65.71 13.614a7.994 7.994 0 01-1.496-2.125 7.242 7.242 0 01-.004-6.31 8.133 8.133 0 011.974-2.582c1.75-1.545 4.08-2.395 6.56-2.395 2.481 0 4.81.85 6.561 2.395a8.123 8.123 0 011.974 2.582 7.238 7.238 0 010 6.303 8.118 8.118 0 01-1.974 2.583c-1.75 1.544-4.08 2.394-6.56 2.394a9.61 9.61 0 01-3.284-.567c-.51.236-2.259 1.207-5.247 2.914 1.087-3.37 1.586-5.1 1.496-5.192z" fill="#5BE3A3"/></g></svg>