<svg xmlns="http://www.w3.org/2000/svg" width="53" height="30"><g fill="none" fill-rule="evenodd"><path d="M0 0h53v30H0z"/><path fill="#B1BDCC" d="M20.465 8.265l-6.023 14.507h-3.928L7.549 11.194c-.179-.712-.336-.973-.882-1.274C5.773 9.43 4.297 8.97 3 8.686l.088-.421h6.325c.805 0 1.53.541 1.715 1.478l1.565 8.396 3.867-9.874h3.905zm15.394 9.77c.017-3.828-5.241-4.04-5.206-5.75.011-.52.502-1.074 1.576-1.216.532-.07 2-.125 3.666.65l.65-3.078C35.652 8.315 34.502 8 33.07 8c-3.674 0-6.26 1.97-6.28 4.795-.023 2.089 1.847 3.253 3.252 3.949 1.45.71 1.936 1.167 1.929 1.802-.01.973-1.156 1.404-2.223 1.42-1.87.03-2.954-.51-3.818-.916l-.674 3.18c.87.402 2.472.752 4.132.77 3.907 0 6.46-1.948 6.472-4.964zm9.704 4.737H49L45.997 8.265h-3.17c-.715 0-1.317.418-1.584 1.064l-5.577 13.443h3.903l.775-2.166h4.769l.45 2.166zm-4.149-5.14l1.957-5.448 1.125 5.449h-3.082zM25.776 8.266l-3.073 14.507h-3.717l3.073-14.507h3.717z"/></g></svg>